<?xml version="1.0" encoding="UTF-8"?>
<svg width="23px" height="23px" viewBox="0 0 23 23" version="1.1" xmlns="http://www.w3.org/2000/svg" xmlns:xlink="http://www.w3.org/1999/xlink">
    <!-- Generator: sketchtool 41.2 (35397) - http://www.bohemiancoding.com/sketch -->
    <title>DAB00832-AC94-4545-9621-BC74283B20AF</title>
    <desc>Created with sketchtool.</desc>
    <defs></defs>
    <g id="Design-1-:-Update-1" stroke="none" stroke-width="1" fill="none" fill-rule="evenodd">
        <g id="Dashboard-:-overview-:-Registration-Trend-:-Pop-up" transform="translate(-890.000000, -240.000000)" fill="#727375">
            <g id="Group-18" transform="translate(247.000000, 199.000000)">
                <g id="Group-17">
                    <g id="Group-9-Copy">
                        <g id="Rectangle-279-Copy" transform="translate(631.946921, 30.028329)">
                            <g id="Group-4">
                                <g id="Group" transform="translate(11.257962, 11.260623)">
                                    <path d="M7.94729635,12.8550242 L2.67475511,18.1288119 L2.67475511,14.2041326 C2.67475511,13.5295784 2.12297754,12.9776704 1.44858273,12.9776704 C0.774187916,12.9776704 0.222410344,13.5295784 0.222410344,14.2041326 L0.222410344,21.0723213 C0.222410344,21.7468755 0.774187916,22.2987835 1.44858273,22.2987835 L8.31514807,22.2987835 C8.98954288,22.2987835 9.54132045,21.7468755 9.54132045,21.0723213 C9.54132045,20.397767 8.98954288,19.845859 8.31514807,19.845859 L4.39139644,19.845859 L9.66393769,14.5720713 C10.1544066,14.0814864 10.1544066,13.3456091 9.66393769,12.8550242 C9.17346873,12.3644393 8.4377653,12.3644393 7.94729635,12.8550242 Z" id="Shape" transform="translate(5.127100, 17.392935) scale(-1, -1) translate(-5.127100, -17.392935) "></path>
                                    <path d="M21.1899581,0.0998166972 L14.3233927,0.0998166972 C13.6489979,0.0998166972 13.0972204,0.651724713 13.0972204,1.32627895 C13.0972204,2.00083319 13.6489979,2.55274121 14.3233927,2.55274121 L18.2471444,2.55274121 L12.9746031,7.82652891 C12.4841342,8.31711381 12.4841342,9.05299117 12.9746031,9.54357607 C13.2198376,9.78886852 13.5263807,9.91151475 13.8329238,9.91151475 C14.1394669,9.91151475 14.44601,9.78886852 14.6912445,9.54357607 L19.9637857,4.26978837 L19.9637857,8.19446759 C19.9637857,8.86902183 20.5155633,9.42092985 21.1899581,9.42092985 C21.8643529,9.42092985 22.4161305,8.86902183 22.4161305,8.19446759 L22.4161305,1.32627895 C22.4161305,0.651724713 21.8643529,0.0998166972 21.1899581,0.0998166972 Z" id="Shape" transform="translate(17.511441, 5.005666) scale(-1, -1) translate(-17.511441, -5.005666) "></path>
                                </g>
                            </g>
                        </g>
                    </g>
                </g>
            </g>
        </g>
    </g>
</svg>