<svg xmlns="http://www.w3.org/2000/svg" style="display: none;">
  
    <symbol id="icon-ic-media" viewBox="0 0 512 512">
      <path d="m255 244l-20-34c-6-10-16-10-22 0l-53 88c-6 10-1 18 11 18l106 0c12 0 17-8 11-18l-13-21 67 0c11 0 16-8 10-18l-42-70c-6-10-16-10-22 0z m-170-116c0-24 19-43 43-43l256 0c24 0 43 19 43 43l0 256c0 24-19 43-43 43l-256 0c-24 0-43-19-43-43z"/>
    </symbol>
  
    <symbol id="icon-ic-activity" viewBox="0 0 512 512">
      <path d="m491 239l-103 0-38-93c-3-9-12-14-21-14-9 1-17 8-19 17l-40 187-46-292c-2-10-10-18-20-18-10-1-19 5-22 15l-59 198-102 0c-11 0-21 9-21 21 0 12 10 22 21 22l118 0c9 0 17-7 20-16l37-123 50 313c1 10 10 17 20 18 0 0 0 0 1 0 10 0 18-7 21-17l49-230 17 41c3 8 11 14 19 14l118 0c11 0 21-10 21-22 0-12-10-21-21-21"/>
    </symbol>
  
    <symbol id="icon-ic-view" viewBox="0 0 512 512">
      <path d="m256 96c-107 0-198 66-235 160 37 94 128 160 235 160 107 0 198-66 235-160-37-94-128-160-235-160z m0 267c-59 0-107-48-107-107 0-59 48-107 107-107 59 0 107 48 107 107 0 59-48 107-107 107z m0-171c-35 0-64 29-64 64 0 35 29 64 64 64 35 0 64-29 64-64 0-35-29-64-64-64z"/>
    </symbol>
  
    <symbol id="icon-ic-shipping" viewBox="0 0 512 512">
      <path d="m414 156l-103-92 93 0c5 0 10 4 10 10z m68 110c-2 0-4-1-6-3l-220-196-220 196c-4 4-10 3-14-1-3-3-3-10 1-13l226-202c4-3 10-3 14 0l226 202c4 3 4 10 1 13-2 3-5 4-8 4z m-216 76c0 44 53 114 78 144l-255 0c-6 0-10-4-10-9l0-226 177-158 177 158 0 3c-17-11-37-17-59-17-60 0-108 47-108 105z m-30-153c0 5 5 9 10 9l20 0c5 0 10-4 10-9l0-19c0-6-5-10-10-10l-20 0c-5 0-10 4-10 10z m138 67c49 0 89 39 89 86 0 45-73 131-81 141-2 2-5 3-8 3-3 0-6-1-7-3-9-10-81-96-81-141 0-47 39-86 88-86z m0 125c22 0 40-17 40-39 0-21-18-38-40-38-22 0-39 17-39 38 0 22 17 39 39 39z"/>
    </symbol>
  
    <symbol id="icon-ic-search" viewBox="0 0 512 512">
      <path d="m366 322l-23 0-8-8c28-33 46-76 46-124 0-105-86-190-191-190-105 0-190 85-190 190 0 105 85 191 190 191 48 0 91-18 124-46l8 8 0 23 146 146 44-44z m-176 0c-72 0-131-59-131-132 0-72 59-131 131-131 73 0 132 59 132 131 0 73-59 132-132 132z"/>
    </symbol>
  
    <symbol id="icon-ic-additional-notes" viewBox="0 0 512 512">
      <path d="m435 51l-107 0c-11-29-39-51-72-51-33 0-61 22-72 51l-107 0c-28 0-51 23-51 51l0 359c0 28 23 51 51 51l358 0c28 0 51-23 51-51l0-359c0-28-23-51-51-51z m-179 0c14 0 26 12 26 26 0 14-12 25-26 25-14 0-26-11-26-25 0-14 12-26 26-26z m51 359l-179 0 0-52 179 0z m77-103l-256 0 0-51 256 0z m0-102l-256 0 0-51 256 0z"/>
    </symbol>
  
    <symbol id="icon-ic-billing" viewBox="0 0 512 512">
      <path d="m259 30c123 0 223 100 223 223 0 123-100 223-223 223-123 0-223-100-223-223 0-123 100-223 223-223z m58 271c0-28-21-52-48-57l0-77c17 4 29 19 29 37 0 6 4 10 10 10 5 0 9-4 9-10 0-28-21-52-48-57l0-20c0-5-4-10-10-10-5 0-9 5-9 10l0 20c-28 5-49 29-49 57 0 29 21 53 49 58l0 77c-17-5-30-20-30-38 0-5-4-9-9-9-6 0-10 4-10 9 0 29 21 53 49 57l0 21c0 5 4 9 9 9 6 0 10-4 10-9l0-21c27-4 48-28 48-57z m-97-97c0-18 13-33 30-37l0 75c-17-5-30-20-30-38z m49 135l0-75c17 4 29 19 29 37 0 18-12 33-29 38z"/>
    </symbol>
  
    <symbol id="icon-ic-calendar" viewBox="0 0 512 512">
      <path d="m370 276l-114 0 0 114 114 0z m-23-250l0 45-182 0 0-45-46 0 0 45-22 0c-26 0-46 21-46 46l0 318c0 25 20 46 46 46l318 0c25 0 46-21 46-46l0-318c0-25-21-46-46-46l-22 0 0-45z m68 409l-318 0 0-250 318 0z"/>
    </symbol>
  
    <symbol id="icon-ic-camera" viewBox="0 0 512 512">
      <path d="m179 26l-47 51-81 0c-28 0-51 23-51 51l0 307c0 28 23 51 51 51l410 0c28 0 51-23 51-51l0-307c0-28-23-51-51-51l-81 0-47-51z m77 358c-57 0-102-46-102-102 0-57 45-103 102-103 57 0 102 46 102 103 0 56-45 102-102 102z"/>
    </symbol>
  
    <symbol id="icon-ic-card" viewBox="0 0 512 512">
      <path d="m22 0l468 0c12 0 22 10 22 23l0 245c0 12-10 22-22 22l-468 0c-12 0-22-10-22-22l0-245c0-13 10-23 22-23z m-5 345l456 0c9 0 17 8 17 17 0 9-8 17-17 17l-456 0c-10 0-17-8-17-17 0-9 7-17 17-17z m0 67l389 0c9 0 17 8 17 17 0 9-8 17-17 17l-389 0c-10 0-17-8-17-17 0-9 7-17 17-17z"/>
    </symbol>
  
    <symbol id="icon-ic-change-image" viewBox="0 0 512 512">
      <path d="m504 443l0-374c0-29-24-53-54-53l-373 0c-29 0-53 24-53 53l0 374c0 29 24 53 53 53l373 0c30 0 54-24 54-53z m-334-147l67 80 93-120 120 160-373 0z"/>
    </symbol>
  
    <symbol id="icon-ic-chat" viewBox="0 0 512 512">
      <path d="m244 339l-94 71 0-71 4 0c-29 0-52-23-52-51l0-134c0-29 23-52 52-52l204 0c29 0 52 23 52 52l0 134c0 28-23 51-52 51z"/>
    </symbol>
  
    <symbol id="icon-ic-checked" viewBox="0 0 512 512">
      <path d="m435 26l-358 0c-28 0-51 23-51 51l0 358c0 28 23 51 51 51l358 0c28 0 51-23 51-51l0-358c0-28-23-51-51-51z m-230 358l-128-123 36-35 92 89 194-187 36 34z"/>
    </symbol>
  
    <symbol id="icon-ic-clock" viewBox="0 0 512 512">
      <path d="m478 134l-98-83-28 33 98 82z m-301-50l-28-33-98 82 28 33z m98 98l-32 0 0 128 102 61 16-26-86-51z m-10-85c-106 0-192 86-192 192 0 106 85 192 192 192 106 0 192-86 192-192 0-106-86-192-192-192z m0 341c-83 0-150-67-150-149 0-83 67-149 150-149 82 0 149 66 149 149 0 82-67 149-149 149z"/>
    </symbol>
  
    <symbol id="icon-ic-close" viewBox="0 0 512 512">
      <path d="m435 113l-36-36-143 143-143-143-36 36 143 143-143 143 36 36 143-143 143 143 36-36-143-143z"/>
    </symbol>
  
    <symbol id="icon-ic-company" viewBox="0 0 512 512">
      <path d="m333 154l65 0c21 0 37 14 37 31l0 250-101 0z m24 118c-7 0-13 5-13 13l0 27c0 7 6 13 13 13l36 0c7 0 13-6 13-13l0-27c0-8-6-13-13-13z m0-73c-7 0-13 6-13 13l0 27c0 7 6 13 13 13l36 0c7 0 13-6 13-13l0-27c0-7-6-13-13-13z m-203-122l128 0c28 0 51 23 51 51l0 307-231 0 0-307c0-28 23-51 52-51z m3 40c-7 0-13 5-13 12l0 35c0 7 6 12 13 12l37 0c7 0 13-5 13-12l0-35c0-7-6-12-13-12z m84 0c-7 0-13 5-13 12l0 35c0 7 6 12 13 12l37 0c7 0 13-5 13-12l0-35c0-7-6-12-13-12z m0 79c-7 0-13 6-13 13l0 34c0 7 6 13 13 13l37 0c7 0 13-6 13-13l0-34c0-7-6-13-13-13z m-84 0c-7 0-13 6-13 13l0 34c0 7 6 13 13 13l37 0c7 0 13-6 13-13l0-34c0-7-6-13-13-13z m0 80c-7 0-13 6-13 13l0 34c0 7 6 13 13 13l37 0c7 0 13-6 13-13l0-34c0-7-6-13-13-13z m84 0c-7 0-13 6-13 13l0 34c0 7 6 13 13 13l37 0c7 0 13-6 13-13l0-34c0-7-6-13-13-13z"/>
    </symbol>
  
    <symbol id="icon-ic-condition" viewBox="0 0 512 512">
      <path d="m77 26l358 0c28 0 51 23 51 51l0 358c0 28-23 51-51 51l-358 0c-28 0-51-23-51-51l0-358c0-28 23-51 51-51z m256 358l51 0 0-179-51 0z m-103 0l52 0 0-256-52 0z m-102 0l51 0 0-102-51 0z"/>
    </symbol>
  
    <symbol id="icon-ic-filled-dropdown-up" viewBox="0 0 512 512">
      <path d="m280 185l110 95c11 9 12 25 3 36-5 5-12 9-19 9l-220 0c-15 0-26-12-26-26 0-7 3-14 9-19l110-95c10-8 24-8 33 0z"/>
    </symbol>
  
    <symbol id="icon-ic-filled-dropdown-down" viewBox="0 0 512 512">
      <path d="m280 319l110-95c11-9 12-25 3-36-5-6-12-9-19-9l-220 0c-15 0-26 12-26 26 0 7 3 14 9 19l110 95c10 8 24 8 33 0z"/>
    </symbol>
  
    <symbol id="icon-ic-expand-1" viewBox="0 0 512 512">
      <path d="m48 0l416 0c27 0 48 21 48 48l0 416c0 27-21 48-48 48l-416 0c-27 0-48-21-48-48l0-416c0-27 21-48 48-48z m26 32c-23 0-42 19-42 42l0 364c0 23 19 42 42 42l364 0c23 0 42-19 42-42l0-364c0-23-19-42-42-42z m121 108l152 118-152 119z"/>
    </symbol>
  
    <symbol id="icon-ic-error" viewBox="0 0 512 512">
      <path d="m255 0c-141 0-255 114-255 255 0 140 114 255 255 255 140 0 255-115 255-255 0-141-115-255-255-255z m0 459c-113 0-204-92-204-204 0-113 91-204 204-204 112 0 204 91 204 204 0 112-92 204-204 204z m-35-203l-55-54c-10-10-10-27 0-37 10-10 27-10 37 0l54 55 54-55c10-10 27-10 37 0 10 10 10 27 0 37l-55 54 55 54c10 10 10 27 0 37-10 10-27 10-37 0l-54-55-54 55c-10 10-27 10-37 0-10-10-10-27 0-37z"/>
    </symbol>
  
    <symbol id="icon-ic-enable" viewBox="0 0 512 512">
      <path d="m188 339l-83-84-28 28 111 112 239-239-28-28z"/>
    </symbol>
  
    <symbol id="icon-ic-edit" viewBox="0 0 512 512">
      <path d="m64 368l0 80 80 0 236-236-80-80z m378-218c8-8 8-22 0-30l-50-50c-8-8-22-8-30 0l-39 39 80 80z"/>
    </symbol>
  
    <symbol id="icon-ic-dynamic-group" viewBox="0 0 512 512">
      <path d="m179 250c-17 0-32 14-32 32 0 17 15 32 32 32 18 0 32-15 32-32 0-18-14-32-32-32z m154 0c-18 0-32 14-32 32 0 17 14 32 32 32 17 0 32-15 32-32 0-18-15-32-32-32z m-77-250c-141 0-256 115-256 256 0 141 115 256 256 256 141 0 256-115 256-256 0-141-115-256-256-256z m0 461c-113 0-205-92-205-205 0-7 1-15 1-22 61-27 109-76 134-137 46 65 122 108 209 108 19 0 39-3 57-7 6 18 9 38 9 58 0 113-92 205-205 205z"/>
    </symbol>
  
    <symbol id="icon-ic-duplicate" viewBox="0 0 512 512">
      <path d="m64 107l-43 0 0 341c0 23 20 43 43 43l341 0 0-43-341 0z m384-86l-299 0c-23 0-42 20-42 43l0 299c0 23 19 42 42 42l299 0c23 0 43-19 43-42l0-299c0-23-20-43-43-43z m0 342l-299 0 0-299 299 0z"/>
    </symbol>
  
    <symbol id="icon-ic-dragable" viewBox="0 0 512 512">
      <path d="m217 196l87 0 0-66 66 0-109-108-109 108 65 0z m-21 21l-66 0 0-65-108 109 108 109 0-66 66 0z m304 44l-109-109 0 65-65 0 0 87 65 0 0 66z m-196 65l-87 0 0 65-65 0 109 109 109-109-66 0z"/>
    </symbol>
  
    <symbol id="icon-ic-disable" viewBox="0 0 512 512">
      <path d="m256 77c-99 0-179 80-179 179 0 99 80 179 179 179 99 0 179-80 179-179 0-99-80-179-179-179z m-143 179c0-79 64-143 143-143 34 0 65 10 88 30l-201 201c-20-23-30-54-30-88z m143 143c-34 0-65-10-88-30l201-201c20 23 30 54 30 88 0 79-64 143-143 143z"/>
    </symbol>
  
    <symbol id="icon-ic-details" viewBox="0 0 512 512">
      <path d="m246 442c54 0 100-19 138-58 39-38 58-84 58-138 0-53-19-99-58-138-38-38-84-57-138-57-53 0-99 19-138 57-38 39-57 85-57 138 0 54 19 100 57 138 39 39 85 58 138 58z m23-293l0 37-45 0 0-37z m0 82l0 121-45 0 0-121z"/>
    </symbol>
  
    <symbol id="icon-ic-delete" viewBox="0 0 512 512">
      <path d="m128 405c0 24 19 43 43 43l170 0c24 0 43-19 43-43l0-256-256 0z m277-320l-74 0-22-21-106 0-22 21-74 0 0 43 298 0z"/>
    </symbol>
  
    <symbol id="icon-ic-data-request" viewBox="0 0 512 512">
      <path d="m269 219c39 0 76-4 111-12 34-8 61-20 81-36l0 48c0 14-9 26-26 37-17 11-40 20-70 27-29 6-62 10-96 10-35 0-67-4-96-10-30-7-53-16-70-27-18-11-26-23-26-37l0-48c20 16 47 28 81 36 34 8 71 12 111 12z m0 220c39 0 76-4 111-12 34-9 61-21 81-37l0 49c0 13-9 25-26 36-17 12-40 21-70 27-29 7-62 10-96 10-35 0-67-3-96-10-30-6-53-15-70-27-18-11-26-23-26-36l0-49c20 16 47 28 81 37 34 8 71 12 111 12z m0-110c39 0 76-4 111-12 34-8 61-20 81-36l0 48c0 13-9 25-26 37-17 11-40 20-70 26-29 7-62 10-96 10-35 0-67-3-96-10-30-6-53-15-70-26-18-12-26-24-26-37l0-48c20 16 47 28 81 36 34 8 71 12 111 12z m0-329c34 0 67 3 96 10 30 6 53 15 70 27 17 11 26 23 26 36l0 37c0 13-9 25-26 36-17 12-40 20-70 27-29 7-62 10-96 10-35 0-67-3-96-10-30-7-53-15-70-27-18-11-26-23-26-36l0-37c0-13 8-25 26-36 17-12 40-21 70-27 29-7 61-10 96-10z"/>
    </symbol>
  
    <symbol id="icon-ic-fraud-analyst" viewBox="0 0 512 512">
      <path d="m213 137c-11 0-21-10-21-22 0-12 10-21 21-21 12 0 22 9 22 21 0 12-10 22-22 22m-64 0c-11 0-21-10-21-22 0-12 10-21 21-21 12 0 22 9 22 21 0 12-10 22-22 22m-64 0c-11 0-21-10-21-22 0-12 10-21 21-21 12 0 22 9 22 21 0 12-10 22-22 22m374-86c29 0 53 24 53 54l0 53-512 0 0-53c0-30 24-54 53-54z m42 278c6 0 11-5 11-11l0 85c0 30-24 54-53 54l-406 0c-29 0-53-24-53-54l0-85c0 6 5 11 11 11l106 0c4 0 7-2 9-5l32-47 35 87c1 4 5 7 9 7 4 1 7-1 10-5l74-111 56 131c2 4 5 6 9 6 0 1 1 1 1 1 4 0 7-2 9-5l39-59z m-501-11l0-139 512 0 0 139c0-6-5-11-11-11l-106 0c-4 0-7 2-9 5l-32 48-56-132c-2-3-5-6-9-6-4 0-8 1-10 5l-74 111-35-88c-2-4-5-6-9-7-4 0-8 2-10 5l-39 59-101 0c-6 0-11 5-11 11z"/>
    </symbol>
  
    <symbol id="icon-ic-fullfillment-services" viewBox="0 0 512 512">
      <path d="m149 85l-143 0 82-82c2-2 5-3 8-3l53 0z m22 0l0-85 53 0c3 0 6 1 8 3l82 82z m-22 182l0 74-138 0c-6 0-11-4-11-10l0-224 320 0 0 128-139 0c-17 0-32 14-32 32z m256 96l0-64 64 0c5 0 8 2 10 6l25 58z m-181 106l0 0-43 0c-3 0-5-1-7-3-2-2-3-5-3-7l0-192c0-6 4-11 10-11l192 0c6 0 11 5 11 11l0 32 0 0 0 135c-7 10-11 22-11 35 0 0-21 0-21 0 0-35-29-64-64-64-35 0-64 29-64 64z m181-55l0-30 107 0 0 75c0 6-5 10-11 10 0-35-28-64-64-64-11 0-22 4-32 9z m32 13c24 0 43 19 43 42 0 24-19 43-43 43-23 0-42-19-42-43 0-23 19-42 42-42z m-149 0c24 0 43 19 43 42 0 24-19 43-43 43-24 0-43-19-43-43 0-23 19-42 43-42z"/>
    </symbol>
  
    <symbol id="icon-ic-generate" viewBox="0 0 512 512">
      <path d="m226 325l-76-75 31-30 60 60 90-91 31 31-121 120z m-105-174l-16-16 30-30 16 16c24-18 53-30 84-34l0-23 42 0 0 23c31 4 60 16 84 34l16-16 30 30-16 16c18 24 30 53 34 84l23 0 0 42-23 0c-4 31-16 60-34 84l16 16-30 30-16-16c-24 18-53 30-84 34l0 23-42 0 0-23c-31-4-60-16-84-34l-16 16-30-30 16-16c-18-24-30-53-34-84l-23 0 0-42 23 0c4-31 16-60 34-84z m135 233c71 0 128-57 128-128 0-71-57-128-128-128-71 0-128 57-128 128 0 71 57 128 128 128z"/>
    </symbol>
  
    <symbol id="icon-ic-grid" viewBox="0 0 512 512">
      <path d="m26 0l179 0c14 0 25 11 25 26l0 179c0 14-11 25-25 25l-179 0c-15 0-26-11-26-25l0-179c0-15 11-26 26-26z m0 282l179 0c14 0 25 11 25 25l0 179c0 15-11 26-25 26l-179 0c-15 0-26-11-26-26l0-179c0-14 11-25 26-25z m281 0l179 0c15 0 26 11 26 25l0 179c0 15-11 26-26 26l-179 0c-14 0-25-11-25-26l0-179c0-14 11-25 25-25z m0-282l179 0c15 0 26 11 26 26l0 179c0 14-11 25-26 25l-179 0c-14 0-25-11-25-25l0-179c0-15 11-26 25-26z"/>
    </symbol>
  
    <symbol id="icon-ic-info" viewBox="0 0 512 512">
      <path d="m256 461c-113 0-205-92-205-205 0-113 92-205 205-205 113 0 205 92 205 205 0 113-92 205-205 205z m0-24c100 0 181-81 181-181 0-100-81-181-181-181-100 0-181 81-181 181 0 100 81 181 181 181z m24-72l-36 0 0-134 36 0z m0-166l-36 0 0-27 36 0z"/>
    </symbol>
  
    <symbol id="icon-ic-invisible" viewBox="0 0 512 512">
      <path d="m256 137c59 0 107 47 107 106 0 14-3 27-8 39l62 63c32-27 58-62 73-102-36-93-128-160-234-160-30 0-59 6-85 15l46 46c12-5 25-7 39-7z m-213-59l58 59c-35 27-63 64-80 106 37 94 128 160 235 160 33 0 65-6 93-18l9 9 63 63 27-28-378-378z m118 118l33 33c-1 5-2 10-2 14 0 36 29 64 64 64 5 0 9 0 14-2l33 34c-14 7-30 11-47 11-59 0-107-48-107-107 0-17 5-32 12-47z m92-16l67 67 0-4c0-35-28-64-64-64z"/>
    </symbol>
  
    <symbol id="icon-ic-list" viewBox="0 0 512 512">
      <path d="m21 1l470 0c11 0 21 9 21 21l0 64c0 12-10 21-21 21l-470 0c-11 0-21-9-21-21l0-64c0-12 10-21 21-21z m0 160l470 0c11 0 21 9 21 21l0 64c0 12-10 21-21 21l-470 0c-11 0-21-9-21-21l0-64c0-12 10-21 21-21z m0 160l470 0c11 0 21 9 21 21l0 64c0 12-10 21-21 21l-470 0c-11 0-21-9-21-21l0-64c0-12 10-21 21-21z"/>
    </symbol>
  
    <symbol id="icon-ic-location" viewBox="0 0 512 512">
      <path d="m183 491c0 0-171-181-171-284 0-102 66-186 171-186 105 0 171 84 171 186 0 103-171 284-171 284z m0-235c35 0 64-29 64-64 0-35-29-64-64-64-35 0-64 29-64 64 0 35 29 64 64 64z"/>
    </symbol>
  
    <symbol id="icon-ic-lock-1" viewBox="0 0 512 512">
      <path d="m400 168l-24 0 0-48c0-66-54-120-120-120-66 0-120 54-120 120l0 48-24 0c-26 0-48 22-48 48l0 240c0 26 22 48 48 48l288 0c26 0 48-22 48-48l0-240c0-26-22-48-48-48z m-70 0l-148 0 0-48c0-41 33-74 74-74 41 0 74 33 74 74z"/>
    </symbol>
  
    <symbol id="icon-ic-manage-custamers" viewBox="0 0 512 512">
      <path d="m394 428c-14-14-34-26-60-35-9-3-20-6-34-8-11-2-19-3-19-3-4-1-8-2-10-3 0-7 0-15 1-26l8-17 1-2c3-7 5-16 8-30 2-2 4-4 5-6 4-6 6-12 8-19 6-26 8-33 8-38 0-7-2-15-5-21l4-37c2-30-9-55-30-76-10-11-22-18-36-24 2-2 4-5 7-8 16-16 39-24 67-24 28 0 51 8 67 24 16 16 24 35 23 56l-6 50c4 1 6 4 6 12 0 1-2 12-7 32-1 4-2 8-4 10-1 2-3 4-5 5l-2 0c-3 18-6 30-9 36l-11 21c-1 29-1 45 2 49 2 3 10 6 24 10 2 1 10 2 23 4 13 2 23 4 29 7 43 15 65 36 65 61z m-69-12c44 15 65 36 65 61l-390 0c0-25 22-46 65-61 6-3 16-5 29-7 13-2 21-3 23-4 14-4 22-8 24-11l2-48c-5-8-9-15-11-21l-9-38c-6 0-9-5-11-14-1-5-2-10-4-16-2-7-3-12-3-16 0-3 0-5 1-7 1-2 2-4 4-5l1 0c-3-10-5-26-6-49-1-21 7-40 23-56 16-16 39-24 67-24 28 0 51 8 67 24 16 16 24 35 23 56l-6 49c4 1 6 5 6 12 0 2-2 13-7 33-1 4-2 7-4 10-1 2-3 4-5 4l-2 0c-3 18-6 31-9 37l-11 21c-1 29-1 45 2 48 2 3 10 7 24 11 3 1 10 2 23 4 13 2 23 4 29 7z"/>
    </symbol>
  
    <symbol id="icon-ic-manage-messages" viewBox="0 0 512 512">
      <path d="m469 128l-426 0c-24 0-43 19-43 43l0 256c0 23 19 42 43 42l426 0c24 0 43-19 43-42l0-256c0-24-19-43-43-43z m-373 85l43 0c6 0 10 5 10 11 0 6-4 11-10 11l-43 0c-6 0-11-5-11-11 0-6 5-11 11-11z m0 128l192 0c6 0 11 5 11 11 0 6-5 11-11 11l-192 0c-6 0-11-5-11-11 0-6 5-11 11-11z m256 64l-256 0c-6 0-11-4-11-10 0-6 5-11 11-11l256 0c6 0 11 5 11 11 0 6-5 10-11 10z m-299-298c-6 0-10-5-10-11 0-6 4-11 10-11l406 0c6 0 10 5 10 11 0 6-4 11-10 11z m43-43c-6 0-11-5-11-11 0-6 5-10 11-10l320 0c6 0 11 4 11 10 0 6-5 11-11 11z"/>
    </symbol>
  
    <symbol id="icon-ic-manage-order" viewBox="0 0 512 512">
      <path d="m370 149l-21 0c-6 0-11-4-11-10 0-6 5-11 11-11l21 0c6 0 11 5 11 11 0 6-5 10-11 10m0 64l-21 0c-6 0-11-4-11-10 0-6 5-11 11-11l21 0c6 0 11 5 11 11 0 6-5 10-11 10m0 64l-21 0c-6 0-11-4-11-10 0-6 5-11 11-11l21 0c6 0 11 5 11 11 0 6-5 10-11 10m0 64l-21 0c-6 0-11-4-11-10 0-6 5-11 11-11l21 0c6 0 11 5 11 11 0 6-5 10-11 10m-87-192l-130 0c-6 0-11-4-11-10 0-6 5-11 11-11l130 0c6 0 11 5 11 11 0 6-5 10-11 10m-141 54c0-6 5-11 11-11l87 0c6 0 11 5 11 11 0 6-5 10-11 10l-87 0c-6 0-11-4-11-10m120 74l-109 0c-6 0-11-4-11-10 0-6 5-11 11-11l109 0c6 0 11 5 11 11 0 6-5 10-11 10m-44 64l-65 0c-6 0-11-4-11-10 0-6 5-11 11-11l65 0c6 0 11 5 11 11 0 6-5 10-11 10m222-340c-4-2-9-1-12 2l-36 35-36-35c-4-4-11-4-15 0l-36 35-36-35c-4-4-11-4-15 0l-36 35-36-35c-4-4-11-4-15 0l-36 35-36-35c-3-3-7-4-11-2-5 1-7 5-7 10l0 490c0 5 2 9 7 10 4 2 8 1 11-2l36-35 36 35c4 4 11 4 15 0l36-35 36 35c4 4 11 4 15 0l36-35 36 35c4 4 11 4 15 0l36-35 36 35c2 2 5 3 8 3 1 0 3 0 4-1 4-1 7-5 7-10l0-490c0-5-3-9-7-10"/>
    </symbol>
  
    <symbol id="icon-ic-marketplace" viewBox="0 0 512 512">
      <path d="m469 43l-426 0 0 53 426 0z m27 266l0-53-27-133-426 0-27 133 0 53 27 0 0 160 266 0 0-160 107 0 0 160 53 0 0-160z m-240 107l-160 0 0-107 160 0z"/>
    </symbol>
  
    <symbol id="icon-ic-radio-off" viewBox="0 0 512 512">
      <path d="m256 0c-141 0-256 115-256 256 0 141 115 256 256 256 141 0 256-115 256-256 0-141-115-256-256-256z m0 461c-113 0-205-92-205-205 0-113 92-205 205-205 113 0 205 92 205 205 0 113-92 205-205 205z"/>
    </symbol>
  
    <symbol id="icon-ic-pricing" viewBox="0 0 512 512">
      <path d="m271 245c-49-12-64-25-64-46 0-23 21-39 57-39 38 0 52 18 53 45l48 0c-2-37-24-71-69-81l0-47-64 0 0 46c-41 9-75 36-75 77 0 49 41 74 101 88 53 13 64 32 64 51 0 15-11 39-58 39-44 0-61-20-63-45l-47 0c2 47 37 73 78 82l0 46 64 0 0-46c42-8 75-32 75-76 0-60-52-81-100-94z"/>
    </symbol>
  
    <symbol id="icon-ic-overview" viewBox="0 0 512 512">
      <path d="m440 432c4 0 8 4 8 8 0 4-4 8-8 8l-368 0c-4 0-8-4-8-8 0-4 4-8 8-8l8 0 0-72c0-4 4-8 8-8l48 0c4 0 8 4 8 8l0 72 32 0 0-152c0-4 4-8 8-8l48 0c4 0 8 4 8 8l0 152 32 0 0-120c0-4 4-8 8-8l48 0c4 0 8 4 8 8l0 120 32 0 0-232c0-4 4-8 8-8l48 0c4 0 8 4 8 8l0 232z m-328-160c-13 0-24-11-24-24 0-13 11-24 24-24 4 0 9 1 12 3l62-51c-1-2-2-5-2-8 0-13 11-24 24-24 13 0 24 11 24 24l53 17c5-5 11-9 19-9 3 0 6 1 9 2l66-78c-2-4-3-8-3-12 0-13 11-24 24-24 13 0 24 11 24 24 0 13-11 24-24 24-3 0-6-1-9-2l-66 78c2 4 3 8 3 12 0 13-11 24-24 24-13 0-24-11-24-24l-53-17c-5 5-11 9-19 9-4 0-9-1-12-3l-62 51c1 2 2 5 2 8 0 13-11 24-24 24z"/>
    </symbol>
  
    <symbol id="icon-ic-outline-dropdown-up" viewBox="0 0 512 512">
      <path d="m354 337l-98-98-98 98-30-30 128-128 128 128z"/>
    </symbol>
  
    <symbol id="icon-ic-outline-dropdown-down" viewBox="0 0 512 512">
      <path d="m354 179l-98 98-98-98-30 30 128 128 128-128z"/>
    </symbol>
  
    <symbol id="icon-ic-orders" viewBox="0 0 512 512">
      <path d="m11 26l74 0c5 0 10 3 11 8l28 120 377 0c4 0 7 1 9 4 2 3 3 6 1 10l-64 192c-1 4-5 7-10 7l-263 0 5 21 226 0c24 0 43 19 43 43 0 23-19 43-43 43-23 0-42-20-42-43 0-8 2-15 6-21l-162 0c4 6 6 13 6 21 0 23-19 43-42 43-24 0-43-20-43-43 0-19 13-35 30-41l-81-343-66 0c-6 0-11-5-11-11 0-6 5-10 11-10"/>
    </symbol>
  
    <symbol id="icon-ic-order-details" viewBox="0 0 512 512">
      <path d="m269 368c-2 7-2 13-2 20l-68 0c4 6 6 13 6 20 0 23-19 41-41 41-23 0-41-18-41-41 0-18 12-33 28-38l-77-324-64 0c-5 0-10-5-10-10 0-6 5-10 10-10l72 0c5 0 9 3 10 7l27 113 362 0c4 0 7 2 9 5 2 2 2 6 1 9l-53 155c-18-17-42-27-69-27-42 0-78 24-94 60l-108 0 5 20z m219 124c4 4 4 10 0 14-2 2-4 3-7 3-2 0-5-1-7-3l-56-54c-13 10-31 17-49 17-46 0-82-36-82-81 0-44 36-80 82-80 45 0 81 36 81 80 0 19-6 36-17 49z m-181-104c0 34 28 61 62 61 16 0 31-7 42-17 0-1 1-1 1-1 0 0 0 0 1-1 10-11 17-25 17-42 0-33-28-60-61-60-34 0-62 27-62 60z"/>
    </symbol>
  
    <symbol id="icon-ic-notificatin" viewBox="0 0 512 512">
      <path d="m250 512c28 0 50-24 50-53l-99 0c0 29 22 53 49 53z m150-158l0-131c0-80-41-148-112-166l0-18c0-21-17-39-38-39-20 0-37 18-37 39l0 18c-71 18-112 85-112 166l0 131-50 53 0 26 398 0 0-26z"/>
    </symbol>
  
    <symbol id="icon-ic-new-message" viewBox="0 0 512 512">
      <path d="m362 181c-81 0-147 66-147 147 0 3 0 6 1 9l-158 0c-21 0-39-17-39-39l0-215c0-8 2-15 6-20l204 126c2 1 4 2 6 2 1 0 3-1 5-2l204-126c4 5 6 12 6 20l0 127c-24-18-55-29-88-29z m68-132l-195 120-195-120c5-3 12-5 18-5l353 0c7 0 13 2 19 5z m-68 151l0-8c75 0 136 61 136 136 0 75-61 135-136 135-75 0-136-60-136-135 0-75 61-136 136-136z m0 0l0 9c-66 0-119 53-119 119 0 65 53 119 119 119 66 0 119-54 119-119 0-66-53-119-119-119z m53 137l-43 0 0 44c0 6-5 10-10 10-5 0-10-4-10-10l0-44-43 0c-6 0-10-4-10-9 0-6 4-10 10-10l43 0 0-44c0-5 5-10 10-10 5 0 10 5 10 10l0 44 43 0c6 0 10 4 10 10 0 5-4 9-10 9z"/>
    </symbol>
  
    <symbol id="icon-ic-message-detail" viewBox="0 0 512 512">
      <path d="m374 229c-59 0-108 49-108 108 0 5 0 10 1 14l-206 0c-23 1-41-18-41-40l0-226c0-7 2-15 6-21l214 133c2 1 3 1 5 1 2 0 4 0 6-1l213-133c4 6 7 14 7 21l0 202c-19-35-55-58-97-58z m75-179l-204 126-203-126c5-4 12-6 19-6l369 0c7 0 13 2 19 6z m60 407c4 4 4 11 0 15-4 4-11 4-15 0l-50-51-15-14c-15 11-34 19-55 19-48 0-88-40-88-89 0-48 40-88 88-88 49 0 89 40 89 88 0 21-8 40-19 55l14 15z m-135-52c38 0 68-30 68-68 0-37-30-67-68-67-37 0-67 30-67 67 0 38 30 68 67 68z"/>
    </symbol>
  
    <symbol id="icon-ic-message" viewBox="0 0 512 512">
      <path d="m401 128c9 0 17 3 24 10 7 7 10 15 10 24l0 213c0 9-3 17-10 24-7 7-15 11-24 11l-290 0c-9 0-17-4-24-11-7-7-10-15-10-24l0-213c0-9 3-17 10-24 7-7 15-10 24-10z m-4 73l0-35-141 94-141-94 0 35 141 93z"/>
    </symbol>
  
    <symbol id="icon-ic-member-info" viewBox="0 0 512 512">
      <path d="m343 317c0-6-6-14-12-16l-60-17 0-20c-6 2-13 3-20 3-7 0-14-1-21-3l0 20-59 17c-6 2-12 10-12 16l0 52 184 0z m-143-126c1 31 23 56 51 56 27 0 49-24 51-54-3 1-7 2-10 2-3 0-5-1-7-1-10-1-19-6-26-12-18 13-41 15-59 9z m3-20c13 5 36 4 51-11 2-2 5-3 9-3 3 1 6 3 7 5 5 9 13 11 18 12 4 1 8 0 12-1-7-23-26-40-49-40-22 0-41 16-48 38z m242-48l0 41 62 0 0 61-62 0 0 41 62 0 0 62-62 0 0 41 62 0 0 41c0 28-23 51-51 51l-11 0 0 20c0 6-4 11-10 11l-338 0 0-492 338 0c6 0 10 5 10 10l0 21 11 0c28 0 51 23 51 51l0 41z m-430-92l0 430c0 17 14 31 31 31l31 0 0-492-31 0c-17 0-31 14-31 31"/>
    </symbol>
  
    <symbol id="icon-ic-member-details" viewBox="0 0 512 512">
      <path d="m307 17c46 0 84 39 93 90-8 1-17 3-19 3-24 5-38-3-52-27l-10-17-9 17c-4 9-15 16-27 21-4-25-15-48-30-66 15-13 34-21 54-21z m-217 86l-12-6c12-46 48-80 91-80 45 0 84 39 93 90-8 1-18 3-20 3-23 5-38-3-52-27l-9-17-9 17c-8 14-33 27-54 27-11 0-19-2-28-7z m232 194c-27 20-45 51-45 87l-277 0 0-42c0-26 16-49 40-58l77-28 0-33c-26-20-43-55-43-94 0-3 0-6 1-10l5 3c12 6 24 9 38 9 23 0 47-10 62-25 14 18 30 27 50 27 5 0 10-1 16-2 2 0 10-2 17-3 0 1 0 1 0 1 0 37-15 70-39 90l0 37 77 28c8 3 15 8 21 13z m113-15c1 4 2 8-2 8-14-8-31-13-49-13-15 0-30 4-43 9-9-10-20-17-33-22l-52-19 0-22c18-25 29-59 29-94 0-1 0-2 0-3 13-4 25-11 34-20 14 18 30 27 50 27 5 0 10-1 16-2 1 0 10-2 17-3 0 1 0 1 0 1 0 37-16 70-39 90l0 37z m74 212c4 4 4 11 0 15-2 2-5 3-8 3-2 0-5-1-7-3l-58-58c-14 11-32 18-52 18-47 0-85-38-85-85 0-47 38-85 85-85 47 0 85 38 85 85 0 20-7 38-18 52z m-189-110c0 35 29 64 64 64 35 0 64-29 64-64 0-35-29-64-64-64-35 0-64 29-64 64z"/>
    </symbol>
  
    <symbol id="icon-ic-radio-on" viewBox="0 0 512 512">
      <path d="m256 128c-72 0-128 56-128 128 0 72 56 128 128 128 72 0 128-56 128-128 0-72-56-128-128-128z m0-128c-141 0-256 115-256 256 0 141 115 256 256 256 141 0 256-115 256-256 0-141-115-256-256-256z m0 461c-113 0-205-92-205-205 0-113 92-205 205-205 113 0 205 92 205 205 0 113-92 205-205 205z"/>
    </symbol>
  
    <symbol id="icon-ic-saved-reply" viewBox="0 0 512 512">
      <path d="m57 0l257 0 142 142 0 313c0 32-26 57-57 57l-342 0c-31 0-57-25-57-57l0-398c0-32 26-57 57-57z m29 57c-16 0-29 13-29 28l0 342c0 15 13 28 29 28l284 0c16 0 29-13 29-28l0-256-114-114z m57 57l57 0c15 0 28 13 28 28 0 16-13 29-28 29l-57 0c-16 0-29-13-29-29 0-15 13-28 29-28z m0 114l170 0c16 0 29 12 29 28 0 16-13 28-29 28l-170 0c-16 0-29-12-29-28 0-16 13-28 29-28z m0 113l170 0c16 0 29 13 29 29 0 15-13 28-29 28l-170 0c-16 0-29-13-29-28 0-16 13-29 29-29z"/>
    </symbol>
  
    <symbol id="icon-ic-scores" viewBox="0 0 512 512">
      <path d="m459 366l-43 0c-6 0-11-5-11-11 0-6 5-11 11-11l43 0c6 0 10 5 10 11 0 6-4 11-10 11z m-65-82c-2-5 0-12 6-14l39-17c6-3 12 0 14 6 2 5 0 12-6 14l-39 17c-1 1-3 1-4 1-4 0-8-2-10-7z m-95 60c0 25-19 44-43 44-24 0-43-19-43-44 0-25 19-45 43-45 8 0 15 3 22 7l99-104c4-4 11-4 15 0 4 5 4 12 0 16l-99 103c3 7 6 15 6 23z m-100-144c-1 1-3 1-4 1-4 0-8-3-10-7l-16-41c-3-6 0-12 5-15 6-2 12 1 14 6l17 41c2 6-1 13-6 15z m-49 34c-2 2-4 3-7 3-3 0-6-1-8-3l-30-32c-4-4-4-11 0-15 4-5 11-5 15 0l30 31c5 4 5 11 0 16z m-32 50c-2 5-6 7-10 7-1 0-3 0-4-1l-39-17c-6-2-8-9-6-14 2-6 8-9 14-6l39 17c6 2 8 9 6 14z m-22 82l-43 0c-6 0-10-5-10-11 0-6 4-11 10-11l43 0c6 0 11 5 11 11 0 6-5 11-11 11z m149-234c0-6 5-11 11-11 6 0 11 5 11 11l0 45c0 6-5 11-11 11-6 0-11-5-11-11z m62 53l17-41c2-5 8-8 14-6 5 3 8 9 5 15l-16 41c-2 4-6 7-10 7-1 0-3 0-4-1-5-2-8-9-6-15z m-51-108c-141 0-256 120-256 267l0 100c0 6 5 11 11 11l490 0c6 0 11-5 11-11l0-100c0-147-115-267-256-267z"/>
    </symbol>
  
    <symbol id="icon-ic-sort" viewBox="0 0 512 512">
      <path d="m243 369c8 12 22 12 30 0l60-81c8-11 4-20-11-20l-128 0c-14 0-19 9-10 20z m0-232c8-11 22-11 30 0l60 81c8 12 4 21-11 21l-128 0c-14 0-19-9-10-21z"/>
    </symbol>
  
    <symbol id="icon-ic-start" viewBox="0 0 512 512">
      <path d="m246 442c-53 0-99-19-138-58-38-38-57-84-57-138 0-53 19-99 57-138 39-38 85-57 138-57 54 0 100 19 138 57 39 39 58 85 58 138 0 54-19 100-58 138-38 39-84 58-138 58z m-30-106l90-90-90-90z"/>
    </symbol>
  
    <symbol id="icon-ic-suspend" viewBox="0 0 512 512">
      <path d="m417 371c-6 9-18 11-26 5-9-6-11-18-5-27 19-27 30-59 30-93 0-88-72-160-160-160-88 0-160 72-160 160 0 88 72 160 160 160 38 0 74-13 103-37 8-7 20-6 27 2 6 8 5 20-3 27-35 30-80 46-127 46-110 0-198-88-198-198 0-110 88-198 198-198 110 0 198 88 198 198 0 42-13 82-37 115z m-198-205c12 0 22 10 22 23l0 134c0 13-10 23-22 23-13 0-23-10-23-23l0-134c0-13 10-23 23-23z m74 0c13 0 23 10 23 23l0 134c0 13-10 23-23 23-12 0-22-10-22-23l0-134c0-13 10-23 22-23z"/>
    </symbol>
  
    <symbol id="icon-ic-sync" viewBox="0 0 512 512">
      <path d="m263 70l0-70-93 93 93 93 0-70c77 0 140 63 140 140 0 24-6 46-17 65l34 34c18-28 29-62 29-99 0-103-83-186-186-186z m0 326c-77 0-140-63-140-140 0-24 6-46 17-65l-34-34c-18 28-29 62-29 99 0 103 83 186 186 186l0 70 93-93-93-93z"/>
    </symbol>
  
    <symbol id="icon-ic-target" viewBox="0 0 512 512">
      <path d="m235 106l0 38c0 12 9 21 21 21 12 0 21-9 21-21l0-38c67 9 120 62 129 129l-38 0c-12 0-21 9-21 21 0 12 9 21 21 21l38 0c-9 67-62 120-129 129l0-38c0-12-9-21-21-21-12 0-21 9-21 21l0 38c-67-9-120-62-129-129l38 0c12 0 21-9 21-21 0-12-9-21-21-21l-38 0c9-67 62-120 129-129m-214 171l41 0c10 91 82 163 173 173l0 41c0 11 9 21 21 21 12 0 21-10 21-21l0-41c91-10 163-82 173-173l41 0c11 0 21-9 21-21 0-12-10-21-21-21l-41 0c-10-91-82-163-173-173l0-41c0-11-9-21-21-21-12 0-21 10-21 21l0 41c-91 10-163 82-173 173l-41 0c-11 0-21 9-21 21 0 12 10 21 21 21"/>
    </symbol>
  
    <symbol id="icon-ic-text" viewBox="0 0 512 512">
      <path d="m0 59l512 0 0 21-512 0z m0 53l512 0 0 21-512 0z m0 53l512 0 0 22-512 0z m0 54l512 0 0 21-512 0z m0 53l512 0 0 21-512 0z m0 53l512 0 0 22-512 0z m0 54l512 0 0 21-512 0z m0 53l192 0 0 21-192 0z"/>
    </symbol>
  
    <symbol id="icon-ic-time" viewBox="0 0 512 512">
      <path d="m256 512c-141 0-256-115-256-256 0-141 115-256 256-256 141 0 256 115 256 256 0 141-115 256-256 256z m0-64c106 0 192-86 192-192 0-106-86-192-192-192-106 0-192 86-192 192 0 106 86 192 192 192z m-51-346l51 0 0 205-51 0z m205 154l0 51-154 0 0-51z"/>
    </symbol>
  
    <symbol id="icon-ic-unchecked" viewBox="0 0 512 512">
      <path d="m435 13c35 0 64 29 64 64l0 358c0 35-29 64-64 64l-358 0c-35 0-64-29-64-64l0-358c0-35 29-64 64-64z m0 25l-358 0c-21 0-39 18-39 39l0 358c0 21 18 39 39 39l358 0c21 0 39-18 39-39l0-358c0-21-18-39-39-39z"/>
    </symbol>
  
    <symbol id="icon-ic-video" viewBox="0 0 512 512">
      <path d="m398 213l0-99c0-16-13-29-28-29l-342 0c-15 0-28 13-28 29l0 284c0 16 13 29 28 29l342 0c15 0 28-13 28-29l0-99 114 113 0-312z"/>
    </symbol>
  
    <symbol id="icon-ic-vendors" viewBox="0 0 512 512">
      <path d="m477 463l-11 0 0-256 0 0c-13 0-25-4-35-11-7 4-14 8-23 10-4 0-8 1-12 1-3 0-5 0-8-1l0 191c0 10-9 19-19 19l-71 0 0-54 25 42c3 5 8 8 13 8 3 0 6-1 8-3 8-4 10-14 6-21l-50-84c-3-5-9-8-15-7 0 0-58 0-58 0-6-1-12 2-15 7l-50 84c-4 7-2 17 6 21 2 2 5 3 8 3 5 0 10-3 13-8l25-42 0 54-71 0c-10 0-19-9-19-19l0-191c-3 1-5 1-8 1-4 0-8-1-12-1-9-2-16-6-23-10-10 7-22 11-35 11l0 0 0 256-11 0c-13 0-24 11-24 24 0 14 11 25 24 25l442 0c13 0 24-11 24-25 0-13-11-24-24-24z m-221-255c-18 0-33 17-33 38 0 21 15 37 33 37 18 0 33-16 33-37 0-21-15-38-33-38z m-220-29c3 1 7 2 10 2 15 0 29-10 33-25l2-7c2 15 13 28 28 31 2 0 5 1 7 1 16 0 31-12 34-29l1-4c1 17 14 31 31 32 2 1 3 1 4 1 18 0 33-14 35-32l0-3c1 19 16 35 35 35 19 0 34-16 35-35l0 3c2 18 17 32 35 32 1 0 2 0 4-1 17-1 30-15 31-32l1 4c3 17 18 29 34 29 2 0 5-1 7-1 15-3 26-16 28-31l2 7c4 15 18 25 33 25 3 0 7-1 10-2 19-5 29-25 24-43l-32-106c-5-18-21-30-40-30l-344 0c-19 0-35 12-40 30l-32 106c-5 18 5 38 24 43z"/>
    </symbol>
  
    <symbol id="icon-ic-user-engagement" viewBox="0 0 512 512">
      <path d="m393 383c45 16 68 37 68 64l-410 0c0-27 23-48 68-64 7-3 17-5 31-7 13-2 22-4 24-5 15-4 23-7 26-11l1-50c-5-9-9-16-12-23l-9-39c-5 0-9-5-11-15-1-5-2-11-5-17-2-7-3-12-3-16 0-4 1-6 2-8 0-3 2-4 3-5l2 0c-4-11-6-28-7-52-1-22 8-42 25-58 17-17 40-26 70-26 30 0 53 9 70 26 17 16 26 36 25 58l-7 52c5 1 7 5 7 13 0 1-3 13-8 34-1 4-2 8-4 10-2 3-3 4-5 5l-2 0c-4 19-7 32-9 38l-12 23c-2 30-1 47 1 50 3 4 11 7 26 11 2 1 11 3 24 5 14 2 24 4 31 7z"/>
    </symbol>
  
    <symbol id="icon-ic-unexpand-1" viewBox="0 0 512 512">
      <path d="m464 512l-416 0c-27 0-48-21-48-48l0-416c0-27 21-48 48-48l416 0c27 0 48 21 48 48l0 416c0 27-21 48-48 48z m-26-32c23 0 42-19 42-42l0-364c0-23-19-42-42-42l-364 0c-23 0-42 19-42 42l0 364c0 23 19 42 42 42z m-121-108l-152-118 152-119z"/>
    </symbol>
  
</svg>
