<?xml version="1.0" encoding="UTF-8"?>
<svg width="100px" height="18px" viewBox="0 0 100 18" version="1.1" xmlns="http://www.w3.org/2000/svg" xmlns:xlink="http://www.w3.org/1999/xlink">
    <!-- Generator: Sketch 41.2 (35397) - http://www.bohemiancoding.com/sketch -->
    <title>Page 1</title>
    <desc>Created with Sketch.</desc>
    <defs>
        <polygon id="path-1" points="6.82413399 17.3207547 0 17.3207547 0 0.031245283 13.648268 0.031245283 13.648268 17.3207547"></polygon>
        <polygon id="path-3" points="1.66666667 17.8520943 101.407843 17.8520943 101.407843 0.000169811321 1.66666667 0.000169811321"></polygon>
    </defs>
    <g id="Design-1" stroke="none" stroke-width="1" fill="none" fill-rule="evenodd">
        <g id="Dashboard-:-Login" transform="translate(-30.000000, -16.000000)">
            <g id="Header">
                <g id="Page-1" transform="translate(30.000000, 16.000000)">
                    <g id="Group-3" transform="translate(0.000000, 0.531340)">
                        <mask id="mask-2" fill="white">
                            <use xlink:href="#path-1"></use>
                        </mask>
                        <g id="Clip-2"></g>
                        <path d="M13.648268,14.8021132 C12.1891176,16.3670943 10.1420588,17.3207547 7.85937908,17.3207547 C3.27081699,17.3207547 -9.80392157e-05,13.4568679 -9.80392157e-05,8.68822642 C-9.80392157e-05,3.89513208 3.27081699,0.031245283 7.85937908,0.031245283 C10.1420588,0.031245283 12.1655882,0.98490566 13.6247386,2.55022642 L12.5420588,3.6750566 C11.3420588,2.42762264 9.71852941,1.6454717 7.85937908,1.6454717 C4.11787582,1.6454717 1.55284314,4.79988679 1.55284314,8.68822642 C1.55284314,12.576566 4.11787582,15.7068679 7.85937908,15.7068679 C9.71852941,15.7068679 11.3655882,14.9240377 12.5655882,13.6524906 L13.648268,14.8021132 Z" id="Fill-1" fill="#00B3C5" mask="url(#mask-2)"></path>
                    </g>
                    <path d="M23.6711111,11.1027736 C23.364902,8.92613208 21.9060784,7.55677358 19.8822222,7.55677358 C17.8351634,7.55677358 16.2348366,8.92613208 15.929281,11.1027736 L23.6711111,11.1027736 Z M14.3289542,11.8604717 C14.3289542,8.24145283 16.7528105,5.94288679 19.8822222,5.94288679 C23.0119608,5.94288679 25.2711111,8.24145283 25.2711111,11.8604717 C25.2711111,12.1053396 25.2711111,12.3987736 25.2475817,12.6188491 L15.929281,12.6188491 C16.211634,14.8443962 17.8351634,16.2382075 19.8822222,16.2382075 C21.364902,16.2382075 22.6354902,15.5046226 23.3181699,14.2571887 C23.7884314,14.3794528 24.4001961,14.5020566 24.8946405,14.6239811 C24.0005229,16.6539057 22.0943137,17.8520943 19.8822222,17.8520943 C16.7528105,17.8520943 14.3289542,15.4801698 14.3289542,11.8604717 L14.3289542,11.8604717 Z" id="Fill-4" fill="#00B3C5"></path>
                    <mask id="mask-4" fill="white">
                        <use xlink:href="#path-3"></use>
                    </mask>
                    <g id="Clip-7"></g>
                    <polygon id="Fill-6" fill="#00B3C5" mask="url(#mask-4)" points="27.0107843 17.607566 28.5640523 17.607566 28.5640523 -0.000169811321 27.0107843 -0.000169811321"></polygon>
                    <polygon id="Fill-8" fill="#00B3C5" mask="url(#mask-4)" points="31.1993464 17.607566 32.7526144 17.607566 32.7526144 -0.000169811321 31.1993464 -0.000169811321"></polygon>
                    <path d="M35.3872549,17.607566 L36.9405229,17.607566 L36.9405229,6.18707547 L35.3872549,6.18707547 L35.3872549,17.607566 Z M36.1872549,0.758207547 C36.8464052,0.758207547 37.3875817,1.24726415 37.3875817,1.9319434 C37.3875817,2.61696226 36.8464052,3.10601887 36.1872549,3.10601887 C35.5287582,3.10601887 34.9875817,2.61696226 34.9875817,1.9319434 C34.9875817,1.24726415 35.5287582,0.758207547 36.1872549,0.758207547 L36.1872549,0.758207547 Z" id="Fill-9" fill="#00B3C5" mask="url(#mask-4)"></path>
                    <path d="M63.4586928,11.1027736 C63.1524837,8.92613208 61.6936601,7.55677358 59.6698039,7.55677358 C57.6227451,7.55677358 56.0224183,8.92613208 55.7168627,11.1027736 L63.4586928,11.1027736 Z M54.1165359,11.8604717 C54.1165359,8.24145283 56.5403922,5.94288679 59.6698039,5.94288679 C62.7995425,5.94288679 65.0586928,8.24145283 65.0586928,11.8604717 C65.0586928,12.1053396 65.0586928,12.3987736 65.0351634,12.6188491 L55.7168627,12.6188491 C55.9992157,14.8443962 57.6227451,16.2382075 59.6698039,16.2382075 C61.1524837,16.2382075 62.4230719,15.5046226 63.1057516,14.2571887 C63.5760131,14.3794528 64.1877778,14.5020566 64.6822222,14.6239811 C63.7881046,16.6539057 61.8818954,17.8520943 59.6698039,17.8520943 C56.5403922,17.8520943 54.1165359,15.4801698 54.1165359,11.8604717 L54.1165359,11.8604717 Z" id="Fill-10" fill="#00B3C5" mask="url(#mask-4)"></path>
                    <path d="M71.670098,16.2136868 C73.9053922,16.2136868 75.8116013,14.6731585 75.8116013,11.8607434 C75.8116013,9.0483283 73.6465686,7.58115849 71.670098,7.58115849 C69.3874183,7.58115849 67.6223856,9.24429057 67.6223856,11.8607434 C67.6223856,14.4041774 69.3874183,16.2136868 71.670098,16.2136868 L71.670098,16.2136868 Z M77.3880719,17.6074981 L75.8116013,17.6074981 L75.8116013,15.6512717 C74.9877451,17.0943283 73.270098,17.8520264 71.670098,17.8520264 C68.5403595,17.8520264 66.045915,15.4801019 66.045915,11.8607434 C66.045915,8.24138491 68.5403595,5.94281887 71.670098,5.94281887 C73.270098,5.94281887 74.9877451,6.62715849 75.8116013,8.07021509 L75.8116013,6.18734717 L77.3880719,6.18734717 L77.3880719,17.6074981 Z" id="Fill-11" fill="#00B3C5" mask="url(#mask-4)"></path>
                    <polygon id="Fill-12" fill="#00B3C5" mask="url(#mask-4)" points="80.0222222 17.607566 81.5754902 17.607566 81.5754902 -0.000169811321 80.0222222 -0.000169811321"></polygon>
                    <polygon id="Fill-13" fill="#00B3C5" mask="url(#mask-4)" points="84.9398693 17.6076679 84.9398693 7.65434717 82.9633987 7.65434717 82.9633987 6.18717736 84.9398693 6.18717736 84.9398693 1.90759245 86.5163399 1.90759245 86.5163399 6.18717736 88.8460784 6.18717736 88.8460784 7.65434717 86.5163399 7.65434717 86.5163399 17.6076679"></polygon>
                    <path d="M91.8578431,17.6076679 L90.2810458,17.6076679 L90.2810458,-6.79245277e-05 L91.8578431,-6.79245277e-05 L91.8578431,8.07038491 C92.5401961,6.57842264 94.2343137,5.94264906 95.5052288,5.94264906 C98.1875817,5.94264906 99.7640523,7.85030943 99.7408497,10.9558189 L99.7408497,17.6076679 L98.1643791,17.6076679 L98.1643791,10.9558189 C98.1643791,8.85287547 97.1993464,7.55653585 95.5052288,7.55653585 C93.7637255,7.55653585 91.8578431,8.58389434 91.8578431,11.3718566 L91.8578431,17.6076679 Z" id="Fill-14" fill="#00B3C5" mask="url(#mask-4)"></path>
                    <path d="M45.5597386,14.9540264 C44.7270588,14.9540264 44.5773856,14.1864792 44.1103922,9.87496981 C44.0891503,9.67934717 44.0669281,9.47047925 44.0430719,9.25821509 C44.0277124,9.31764906 44.0126797,9.37572453 43.9979739,9.43176226 C43.3881699,11.7558 43.2616993,12.2394226 42.6185621,12.2394226 L38.6969935,12.2394226 L38.6969935,10.8809321 L42.2335948,10.8809321 C42.3721569,10.4645547 42.5773856,9.68206415 42.7365359,9.07447925 C43.3881699,6.58946038 43.5633333,5.92142264 44.252549,5.92142264 C44.9976471,5.92142264 45.052549,6.4278 45.4094118,9.72315849 C45.4855556,10.4258377 45.5875163,11.3679509 45.6960131,12.1789698 C45.707451,12.1331208 45.7188889,12.0886302 45.73,12.0454981 C46.1437255,10.4125925 46.3937255,9.42700755 47.1937255,9.42700755 C48.0061438,9.42700755 48.3244444,10.3168189 48.5143137,10.8486679 C48.5211765,10.8666679 48.5277124,10.8856868 48.534902,10.9053849 L53.4028758,10.9053849 L53.4028758,12.2638755 L48.1741176,12.2638755 C47.6257516,12.2638755 47.4391503,11.7415358 47.2891503,11.3217623 C47.2871895,11.3170075 47.2855556,11.3119132 47.2835948,11.3068189 C47.1786928,11.6620642 47.0721569,12.082517 46.9940523,12.3915736 C46.5884967,13.9894981 46.3440523,14.9540264 45.5597386,14.9540264" id="Fill-15" fill="#A1CD57" mask="url(#mask-4)"></path>
                    <polygon id="Fill-16" fill="#00B3C5" mask="url(#mask-4)" points="40.0228758 17.607566 41.5761438 17.607566 41.5761438 12.9187358 40.0228758 12.9187358"></polygon>
                    <polygon id="Fill-17" fill="#00B3C5" mask="url(#mask-4)" points="41.5760784 10.0022943 41.5760784 8.48587925 41.5760784 0.75810566 40.0228105 0.75810566 40.0228105 10.2016528 41.5760784 10.2016528"></polygon>
                    <polygon id="Fill-18" fill="#00B3C5" mask="url(#mask-4)" points="50.4712418 17.607566 52.024183 17.607566 52.024183 12.9431887 50.4712418 12.9431887"></polygon>
                    <polygon id="Fill-19" fill="#00B3C5" mask="url(#mask-4)" points="52.0240196 0.758207547 50.4710784 0.758207547 50.4710784 8.48598113 50.4710784 10.0023962 50.4710784 10.2262075 52.0240196 10.2262075"></polygon>
                </g>
            </g>
        </g>
    </g>
</svg>