<?xml version="1.0" encoding="UTF-8"?>
<svg width="16px" height="16px" viewBox="0 0 16 16" version="1.1" xmlns="http://www.w3.org/2000/svg" xmlns:xlink="http://www.w3.org/1999/xlink">
    <!-- Generator: sketchtool 41.2 (35397) - http://www.bohemiancoding.com/sketch -->
    <title>95E26E91-2517-47B8-922C-71787B7032E1</title>
    <desc>Created with sketchtool.</desc>
    <defs></defs>
    <g id="Design-1-:-Update-1" stroke="none" stroke-width="1" fill="none" fill-rule="evenodd">
        <g id="Dashboard-:-overview" transform="translate(-648.000000, -169.000000)" fill="#727375">
            <g id="Group-25" transform="translate(220.000000, 142.000000)">
                <g id="Group-17">
                    <g id="Group-28">
                        <g id="Group-9">
                            <g transform="translate(20.000000, 20.000000)" id="Rectangle-279-Copy">
                                <g transform="translate(254.000000, 0.000000)">
                                    <g id="Group-4" transform="translate(147.000000, 0.000000)">
                                        <g id="Group" transform="translate(7.000000, 7.000000)">
                                            <path d="M5.79445061,9.06193119 L2.28190899,12.5744728 L2.28190899,9.96048835 C2.28190899,9.51120977 1.91431743,9.1436182 1.46503885,9.1436182 C1.01576027,9.1436182 0.648168701,9.51120977 0.648168701,9.96048835 L0.648168701,14.5349612 C0.648168701,14.9842397 1.01576027,15.3518313 1.46503885,15.3518313 L6.03951165,15.3518313 C6.48879023,15.3518313 6.8563818,14.9842397 6.8563818,14.5349612 C6.8563818,14.0856826 6.48879023,13.718091 6.03951165,13.718091 L3.42552719,13.718091 L6.93806881,10.2055494 C7.26481687,9.87880133 7.26481687,9.38867925 6.93806881,9.06193119 C6.61132075,8.73518313 6.12119867,8.73518313 5.79445061,9.06193119 Z" id="Shape"></path>
                                            <path d="M14.6166482,0.566481687 L10.0421754,0.566481687 C9.59289678,0.566481687 9.22530522,0.934073252 9.22530522,1.38335183 C9.22530522,1.83263041 9.59289678,2.20022198 10.0421754,2.20022198 L12.6561598,2.20022198 L9.1436182,5.7127636 C8.81687014,6.03951165 8.81687014,6.52963374 9.1436182,6.8563818 C9.30699223,7.01975583 9.51120977,7.10144284 9.7154273,7.10144284 C9.91964484,7.10144284 10.1238624,7.01975583 10.2872364,6.8563818 L13.799778,3.34384018 L13.799778,5.95782464 C13.799778,6.40710322 14.1673696,6.77469478 14.6166482,6.77469478 C15.0659267,6.77469478 15.4335183,6.40710322 15.4335183,5.95782464 L15.4335183,1.38335183 C15.4335183,0.934073252 15.0659267,0.566481687 14.6166482,0.566481687 Z" id="Shape"></path>
                                        </g>
                                    </g>
                                </g>
                            </g>
                        </g>
                    </g>
                </g>
            </g>
        </g>
    </g>
</svg>