<?xml version="1.0" encoding="UTF-8"?>
<svg width="22px" height="18px" viewBox="0 0 22 18" version="1.1" xmlns="http://www.w3.org/2000/svg" xmlns:xlink="http://www.w3.org/1999/xlink">
    <!-- Generator: Sketch 41.2 (35397) - http://www.bohemiancoding.com/sketch -->
    <title>Group</title>
    <desc>Created with Sketch.</desc>
    <defs></defs>
    <g id="Design-1" stroke="none" stroke-width="1" fill="none" fill-rule="evenodd">
        <g id="Dashboard-:-overview" transform="translate(-246.000000, -172.000000)" fill="#FFFFFF">
            <g id="Group-25" transform="translate(220.000000, 142.000000)">
                <g id="Group-17">
                    <g id="Group-28">
                        <g id="Group-9">
                            <g transform="translate(20.000000, 20.000000)" id="Group-18">
                                <g transform="translate(0.000000, 1.000000)">
                                    <g id="Group" transform="translate(6.000000, 9.000000)">
                                        <path d="M0.66,9 C0.66,9.92828571 0.95568,10.4828571 1.54,10.656 L1.54,14.5714286 L5.06,14.5714286 L5.06,10.656 C5.64344,10.4828571 5.93912,9.92828571 5.94,9 L5.94,6 L0.66,6 L0.66,9 Z" id="Fill-23"></path>
                                        <path d="M16.5,6 L16.5,9 C16.5,9.92828571 16.79568,10.4828571 17.38,10.656 L17.38,14.5714286 L20.9,14.5714286 L20.9,10.656 C21.48344,10.4828571 21.77912,9.92828571 21.78,9 L21.78,6 L16.5,6 Z" id="Fill-24"></path>
                                        <path d="M7.7,10.7142857 C7.7,11.7497143 8.4568,12.6154286 9.46,12.8142857 L9.46,18 L12.98,18 L12.98,12.8142857 C13.9832,12.6154286 14.74,11.7497143 14.74,10.7142857 L14.74,6 L7.7,6 L7.7,10.7142857 Z" id="Fill-25"></path>
                                        <path d="M19.14,5.14285714 C20.11064,5.14285714 20.9,4.374 20.9,3.42857143 C20.9,2.484 20.11064,1.71428571 19.14,1.71428571 C18.16936,1.71428571 17.38,2.484 17.38,3.42857143 C17.38,4.374 18.16936,5.14285714 19.14,5.14285714" id="Fill-26"></path>
                                        <path d="M3.3,5.14285714 C4.27064,5.14285714 5.06,4.374 5.06,3.42857143 C5.06,2.484 4.27064,1.71428571 3.3,1.71428571 C2.32936,1.71428571 1.54,2.484 1.54,3.42857143 C1.54,4.374 2.32936,5.14285714 3.3,5.14285714" id="Fill-27"></path>
                                        <path d="M11.22,5.14285714 C12.67552,5.14285714 13.86,3.98914286 13.86,2.57142857 C13.86,1.15371429 12.67552,0 11.22,0 C9.76448,0 8.58,1.15371429 8.58,2.57142857 C8.58,3.98914286 9.76448,5.14285714 11.22,5.14285714" id="Fill-28"></path>
                                    </g>
                                </g>
                            </g>
                        </g>
                    </g>
                </g>
            </g>
        </g>
    </g>
</svg>