<?xml version="1.0" encoding="UTF-8"?>
<svg width="16px" height="18px" viewBox="0 0 16 18" version="1.1" xmlns="http://www.w3.org/2000/svg" xmlns:xlink="http://www.w3.org/1999/xlink">
    <!-- Generator: Sketch 41.2 (35397) - http://www.bohemiancoding.com/sketch -->
    <title>ic_supervisor</title>
    <desc>Created with Sketch.</desc>
    <defs></defs>
    <g id="Design-1" stroke="none" stroke-width="1" fill="none" fill-rule="evenodd" opacity="0.699999988">
        <g id="Dashboard-:-overview" transform="translate(-32.000000, -327.000000)">
            <g id="Group-4" transform="translate(15.000000, 66.000000)">
                <g id="Group-4-Copy-5" transform="translate(0.000000, 240.000000)">
                    <g id="ic_supervisor" transform="translate(13.000000, 19.000000)">
                        <polygon id="Shape" points="0 0 24 0 24 24 0 24"></polygon>
                        <g id="Fill-700" transform="translate(4.000000, 2.000000)" fill="#727272">
                            <path d="M7.48509091,10.77012 C7.42181818,10.81548 7.34690909,10.8378 7.27272727,10.8378 C7.19781818,10.8378 7.12363636,10.81548 7.06036364,10.77012 C6.67272727,10.49436 3.27272727,8.01108 3.27272727,5.96556 C3.27272727,4.50828 4.37309091,3.63708 5.43709091,3.63708 C6.06254545,3.63708 6.79781818,3.94884 7.27272727,4.76172 C7.74763636,3.94884 8.48290909,3.63708 9.10836364,3.63708 C10.1723636,3.63708 11.2727273,4.50828 11.2727273,5.96556 C11.2727273,8.01108 7.87272727,10.49436 7.48509091,10.77012 M14.7527273,7.09668 C14.5345455,6.71868 14.2356364,6.201 14.2276364,6.05268 C14.2276364,2.26404 10.6916364,0.00036 7.27272727,0.00036 C3.19490909,0.00036 0,3.18204 0,7.245 C0,9.837 0.978181818,11.76372 2.90909091,12.97476 L2.90909091,16.92036 C2.90909091,17.11908 3.072,17.28036 3.27272727,17.28036 L10.5454545,17.28036 C10.7461818,17.28036 10.9090909,17.11908 10.9090909,16.92036 L10.9090909,14.7762 C12.1723636,14.76396 12.9367273,14.6358 13.5069091,14.06988 C14.1149091,13.46796 14.2014545,11.66508 14.2072727,10.809 C14.4276364,10.8126 14.704,10.81332 14.9461818,10.80396 C15.2283636,10.79172 15.4901818,10.65132 15.6465455,10.43028 C15.7810909,10.2402 15.7832727,10.04004 15.7847273,9.89532 L15.7869091,9.79524 C15.8458182,8.99172 15.2647273,7.98516 14.7527273,7.09668"></path>
                        </g>
                    </g>
                </g>
            </g>
        </g>
    </g>
</svg>