<?xml version="1.0" encoding="UTF-8"?>
<svg width="18px" height="21px" viewBox="0 0 18 21" version="1.1" xmlns="http://www.w3.org/2000/svg" xmlns:xlink="http://www.w3.org/1999/xlink">
    <!-- Generator: Sketch 41.2 (35397) - http://www.bohemiancoding.com/sketch -->
    <title>ic_restaurant_menu_24px</title>
    <desc>Created with Sketch.</desc>
    <defs></defs>
    <g id="Design-1" stroke="none" stroke-width="1" fill="none" fill-rule="evenodd" opacity="0.699999988">
        <g id="Dashboard-:-overview" transform="translate(-31.000000, -204.000000)">
            <g id="Group-4" transform="translate(15.000000, 66.000000)">
                <g id="Group-4-Copy-3" transform="translate(0.000000, 120.000000)">
                    <g id="ic_restaurant_menu_24px" transform="translate(13.000000, 18.000000)">
                        <polygon id="Shape" points="0 0 24 0 24 24 0 24"></polygon>
                        <g id="Fill-1-+-Fill-3" transform="translate(3.000000, 0.000000)" fill="#727272">
                            <path d="M12.0026858,5.044914 C10.3946858,5.044914 9.83411438,5.301114 9.00268581,5.753874 L9.00268581,4.624914 C9.00268581,3.467394 8.04097152,2.524914 6.85982866,2.524914 L5.14554295,2.524914 C4.90897152,2.524914 4.71697152,2.713074 4.71697152,2.944914 C4.71697152,3.176754 4.90897152,3.364914 5.14554295,3.364914 L6.85982866,3.364914 C7.56782866,3.364914 8.14554295,3.930234 8.14554295,4.624914 L8.14554295,5.753874 C7.31325724,5.310354 6.79382866,5.044914 5.14554295,5.044914 C2.26211438,5.044914 0.00268580688,7.812714 0.00268580688,11.344914 C0.00268580688,14.667954 2.60668581,20.164914 5.57411438,20.164914 C7.11782866,20.164914 7.57211438,19.877634 7.96811438,19.531554 C8.13011438,19.389594 8.20468581,19.324914 8.57411438,19.324914 C8.94354295,19.324914 9.01725724,19.389594 9.17925724,19.531554 C9.57611438,19.877634 10.0295429,20.164914 11.5741144,20.164914 C14.5415429,20.164914 17.1455429,14.667954 17.1455429,11.344914 C17.1455429,7.812714 14.8861144,5.044914 12.0026858,5.044914" id="Fill-1"></path>
                            <path d="M10.2884001,4.624914 C12.6515429,4.624914 14.5741144,2.740794 14.5741144,0.424914 C14.5741144,0.193074 14.3812572,0.004914 14.1455429,0.004914 C11.7815429,0.004914 9.85982866,1.889034 9.85982866,4.204914 C9.85982866,4.436754 10.0518287,4.624914 10.2884001,4.624914" id="Fill-3"></path>
                        </g>
                    </g>
                </g>
            </g>
        </g>
    </g>
</svg>