<?xml version="1.0" encoding="UTF-8"?>
<svg width="24px" height="22px" viewBox="0 0 24 22" version="1.1" xmlns="http://www.w3.org/2000/svg" xmlns:xlink="http://www.w3.org/1999/xlink">
    <!-- Generator: Sketch 41.2 (35397) - http://www.bohemiancoding.com/sketch -->
    <title>Group</title>
    <desc>Created with Sketch.</desc>
    <defs></defs>
    <g id="Design-1" stroke="none" stroke-width="1" fill="none" fill-rule="evenodd">
        <g id="Dashboard-:-overview" transform="translate(-734.000000, -169.000000)" fill="#FFFFFF">
            <g id="Group-25" transform="translate(220.000000, 142.000000)">
                <g id="Group-17">
                    <g id="Group-28">
                        <g id="Group-18" transform="translate(489.000000, 0.000000)">
                            <g id="Group-17">
                                <g id="Group-9-Copy">
                                    <g id="Group-9" transform="translate(20.000000, 21.000000)">
                                        <g id="Group" transform="translate(5.000000, 6.000000)">
                                            <path d="M16,17.1284 L16,18.0004 L8,18.0004 L8,17.1284 C4.487,17.3464 0,17.9314 0,19.5004 C0,21.9294 10.772,22.0004 12,22.0004 C13.228,22.0004 24,21.9294 24,19.5004 C24,17.9314 19.513,17.3464 16,17.1284" id="Fill-688"></path>
                                            <path d="M12,6 C13.654,6 15,4.654 15,3 C15,1.346 13.654,0 12,0 C10.346,0 9,1.346 9,3 C9,4.654 10.346,6 12,6" id="Fill-689"></path>
                                            <path d="M12,7 C10.346,7 9,8.346 9,10 L9,17 L15,17 L15,10 C15,8.346 13.654,7 12,7" id="Fill-690"></path>
                                            <path d="M19,6 C20.103,6 21,5.102 21,4 C21,2.896 20.103,2 19,2 C17.897,2 17,2.896 17,4 C17,5.102 17.897,6 19,6" id="Fill-691"></path>
                                            <path d="M19,7 C17.897,7 17,7.896 17,9 L17,15 L21,15 L21,9 C21,7.896 20.103,7 19,7" id="Fill-692"></path>
                                            <path d="M5,6 C6.103,6 7,5.102 7,4 C7,2.896 6.103,2 5,2 C3.897,2 3,2.896 3,4 C3,5.102 3.897,6 5,6" id="Fill-693"></path>
                                            <path d="M5,7 C3.897,7 3,7.896 3,9 L3,15 L7,15 L7,9 C7,7.896 6.103,7 5,7" id="Fill-694"></path>
                                        </g>
                                    </g>
                                </g>
                            </g>
                        </g>
                    </g>
                </g>
            </g>
        </g>
    </g>
</svg>