<?xml version="1.0" encoding="UTF-8" standalone="no"?>
<svg width="20px" height="19px" viewBox="0 0 20 19" version="1.1" xmlns="http://www.w3.org/2000/svg" xmlns:xlink="http://www.w3.org/1999/xlink">
    <!-- Generator: Sketch 39.1 (31720) - http://www.bohemiancoding.com/sketch -->
    <title>Fill 195 + Fill 196 + Fill 197</title>
    <desc>Created with Sketch.</desc>
    <defs></defs>
    <g id="Design-1" stroke="none" stroke-width="1" fill="none" fill-rule="evenodd">
        <g id="Dashboard-:-Nutrition" transform="translate(-247.000000, -540.000000)" fill="#FFFFFF">
            <g id="Group-5" transform="translate(220.000000, 142.000000)">
                <g id="Group-42-Copy" transform="translate(0.000000, 369.000000)">
                    <g id="Group-18">
                        <g id="Group-17">
                            <g id="Group-9-Copy">
                                <g id="Group-9" transform="translate(20.000000, 20.000000)">
                                    <g id="Fill-195-+-Fill-196-+-Fill-197" transform="translate(7.000000, 9.000000)">
                                        <path d="M8.03298675,13.21735 C8.01378675,13.0826978 8.00258675,12.9447413 8.00258675,12.8043065 C8.00258675,10.2996109 9.97698675,8.26082826 12.4025868,8.26082826 L14.4065868,8.26082826 L17.5849868,4.97382826 C18.6777868,3.84539348 18.6777868,2.01148043 17.5849868,0.883045652 C16.4929868,-0.243736957 14.7161868,-0.242084783 13.6257868,0.883045652 L12.6337868,1.90821957 L12.6817868,1.88426304 C12.8489868,2.23865435 13.1521868,2.51621957 13.4193868,2.76156739 C13.7697868,3.08126304 14.1001868,3.38361087 14.1057868,3.82887174 C14.1089868,4.1097413 13.9785868,4.37161087 13.7073868,4.63100217 C13.4769868,4.85321957 13.1761868,4.96969783 12.8329868,4.96969783 C12.0697868,4.96969783 11.3033868,4.40300217 10.8033868,3.7999587 L8.83778675,5.82800217 L8.88258675,5.80569783 C9.04898675,6.1617413 9.35218675,6.44013261 9.62098675,6.68630652 C9.97058675,7.00600217 10.3009868,7.30835 10.3057868,7.75361087 C10.3089868,8.03365435 10.1785868,8.29635 9.90738675,8.5557413 C9.67698675,8.77713261 9.37618675,8.89361087 9.03298675,8.89361087 C8.26978675,8.89361087 7.50338675,8.32691522 7.00338675,7.72387174 L5.23858675,9.54539348 L5.28258675,9.52308913 C5.44898675,9.87913261 5.75218675,10.1575239 6.02098675,10.4036978 C6.37058675,10.7233935 6.70098675,11.0257413 6.70578675,11.4710022 C6.70898675,11.7510457 6.57858675,12.0137413 6.30738675,12.2731326 C6.07698675,12.4945239 5.77618675,12.6110022 5.43298675,12.6110022 C4.66978675,12.6110022 3.90338675,12.0443065 3.40338675,11.441263 L2.31218675,12.5672196 C2.12498675,12.7596978 1.97698675,12.9835674 1.85058675,13.21735 L8.03298675,13.21735 Z" id="Fill-195"></path>
                                        <path d="M18.3618668,13.21735 C18.3882668,13.08435 18.4026668,12.9455674 18.4026668,12.8043065 C18.4026668,10.7812196 16.8266668,9.13648043 14.8762668,9.09517609 L15.1234668,9.58421957 C15.1578668,9.65856739 15.7754668,11.0530022 15.3178668,12.5655674 C15.2642668,12.74235 15.1066668,12.8546978 14.9362668,12.8546978 C14.8970668,12.8546978 14.8562668,12.8497413 14.8162668,12.8365239 C14.6058668,12.7687848 14.4882668,12.5374804 14.5538668,12.3193935 C14.9170668,11.1190891 14.4106668,9.96008913 14.4058668,9.94852391 L13.9698668,9.08691522 L13.2594668,9.08691522 L13.5194668,9.5759587 C13.5578668,9.65856739 14.1754668,11.0530022 13.7178668,12.5655674 C13.6642668,12.74235 13.5066668,12.8546978 13.3362668,12.8546978 C13.2970668,12.8546978 13.2562668,12.8497413 13.2162668,12.8365239 C13.0058668,12.7687848 12.8882668,12.5374804 12.9538668,12.3193935 C13.3170668,11.1190891 12.8106668,9.96008913 12.8058668,9.94852391 L12.4514668,9.28600217 C12.4178668,9.22239348 12.4082668,9.15465435 12.4082668,9.08691522 L12.4026668,9.08691522 C12.1610668,9.08691522 11.9266668,9.11417609 11.6986668,9.16043696 L11.9194668,9.5759587 C11.9578668,9.65856739 12.5754668,11.0530022 12.1178668,12.5655674 C12.0642668,12.74235 11.9066668,12.8546978 11.7362668,12.8546978 C11.6970668,12.8546978 11.6562668,12.8497413 11.6162668,12.8365239 C11.4058668,12.7687848 11.2882668,12.5374804 11.3538668,12.3193935 C11.7170668,11.1190891 11.2106668,9.96008913 11.2058668,9.94852391 L10.9250668,9.42313261 C9.67706675,10.0080022 8.80266675,11.3000022 8.80266675,12.8043065 C8.80266675,12.9455674 8.81626675,13.08435 8.84346675,13.21735 L18.3618668,13.21735 Z" id="Fill-196"></path>
                                        <path d="M19.1720268,14.2983674 C19.1104268,14.1447152 18.9640268,14.0431065 18.8024268,14.0431065 L0.402426753,14.0431065 C0.240826753,14.0431065 0.0944267531,14.1447152 0.0328267531,14.2983674 C-0.0287732469,14.4528457 0.00562675309,14.6304543 0.120026753,14.7485848 L4.12002675,18.8790196 C4.19442675,18.9566717 4.29602675,18.9996283 4.40242675,18.9996283 L14.8024268,18.9996283 C14.9088268,18.9996283 15.0104268,18.9566717 15.0856268,18.8790196 L19.0856268,14.7485848 C19.1992268,14.6304543 19.2336268,14.4528457 19.1720268,14.2983674" id="Fill-197"></path>
                                    </g>
                                </g>
                            </g>
                        </g>
                    </g>
                </g>
            </g>
        </g>
    </g>
</svg>