<?xml version="1.0" encoding="UTF-8" standalone="no"?>
<svg width="15px" height="17px" viewBox="0 0 15 17" version="1.1" xmlns="http://www.w3.org/2000/svg" xmlns:xlink="http://www.w3.org/1999/xlink">
    <!-- Generator: Sketch 39.1 (31720) - http://www.bohemiancoding.com/sketch -->
    <title>Fill 267</title>
    <desc>Created with Sketch.</desc>
    <defs></defs>
    <g id="Design-1" stroke="none" stroke-width="1" fill="none" fill-rule="evenodd">
        <g id="Dashboard-:-Health-Status" transform="translate(-250.000000, -172.000000)">
            <g id="Group-8" transform="translate(220.000000, 142.000000)">
                <g id="Group-18">
                    <g id="Group-17">
                        <g id="Group-9-Copy">
                            <g id="Group-9" transform="translate(20.000000, 20.000000)">
                                <g id="Group-18" transform="translate(0.000000, 1.000000)">
                                    <g id="Fill-267" transform="translate(10.000000, 9.000000)">
                                        <path d="M13.9287857,0.000494117647 L0.357357143,0.000494117647 C0.160214286,0.000494117647 0.000214285714,0.158611765 0.000214285714,0.353435294 L0.000214285714,5.48167059 C0.000214285714,10.2880235 2.67307143,14.6644941 6.97664286,16.9014353 C7.02878571,16.9282588 7.08592857,16.9416706 7.14307143,16.9416706 C7.20021429,16.9416706 7.25664286,16.9282588 7.3095,16.9014353 C11.6123571,14.6630824 14.2859286,10.2866118 14.2859286,5.48167059 L14.2859286,0.353435294 C14.2859286,0.158611765 14.1259286,0.000494117647 13.9287857,0.000494117647" fill="#FFFFFF"></path>
                                        <path d="M8.67092437,4.41176471 C8.08605042,4.41176471 7.45613445,4.72571429 7.05882353,5.40067227 C6.66352941,4.72840336 6.03361345,4.41176471 5.44672269,4.41176471 C4.50352941,4.41176471 3.52941176,5.19697479 3.52941176,6.5112605 C3.52941176,8.01378151 5.63428571,9.92773109 6.85579832,10.822521 C6.85714286,10.8231933 6.85983193,10.8252101 6.86117647,10.8258824 C6.91966387,10.8689076 6.98957983,10.8897479 7.05882353,10.8897479 C7.12806723,10.8897479 7.19731092,10.8689076 7.25647059,10.8258824 C7.25714286,10.8252101 7.25983193,10.8231933 7.26117647,10.822521 C8.4692437,9.94252101 10.5882353,8.01042017 10.5882353,6.5112605 C10.5882353,5.19697479 9.61344538,4.41176471 8.67092437,4.41176471" id="Fill-288" fill="#01B3C5"></path>
                                    </g>
                                </g>
                            </g>
                        </g>
                    </g>
                </g>
            </g>
        </g>
    </g>
</svg>