<?xml version="1.0" encoding="UTF-8" standalone="no"?>
<svg width="18px" height="19px" viewBox="0 0 18 19" version="1.1" xmlns="http://www.w3.org/2000/svg" xmlns:xlink="http://www.w3.org/1999/xlink">
    <!-- Generator: Sketch 39.1 (31720) - http://www.bohemiancoding.com/sketch -->
    <title>Fill 1</title>
    <desc>Created with Sketch.</desc>
    <defs></defs>
    <g id="Design-1" stroke="none" stroke-width="1" fill="none" fill-rule="evenodd">
        <g id="Dashboard-:-User-Interests" transform="translate(-248.000000, -171.000000)" fill="#FFFFFF">
            <g id="Group-8" transform="translate(220.000000, 142.000000)">
                <g id="Group-45-Copy-5">
                    <g id="Group-9" transform="translate(20.000000, 20.000000)">
                        <g id="Group-5" transform="translate(0.000000, 1.000000)">
                            <g id="Fill-1-+-Fill-3" transform="translate(8.000000, 6.000000)">
                                <path d="M12.0026858,5.044914 C10.3946858,5.044914 9.83411438,5.301114 9.00268581,5.753874 L9.00268581,4.624914 C9.00268581,3.467394 8.04097152,2.524914 6.85982866,2.524914 L5.14554295,2.524914 C4.90897152,2.524914 4.71697152,2.713074 4.71697152,2.944914 C4.71697152,3.176754 4.90897152,3.364914 5.14554295,3.364914 L6.85982866,3.364914 C7.56782866,3.364914 8.14554295,3.930234 8.14554295,4.624914 L8.14554295,5.753874 C7.31325724,5.310354 6.79382866,5.044914 5.14554295,5.044914 C2.26211438,5.044914 0.00268580688,7.812714 0.00268580688,11.344914 C0.00268580688,14.667954 2.60668581,20.164914 5.57411438,20.164914 C7.11782866,20.164914 7.57211438,19.877634 7.96811438,19.531554 C8.13011438,19.389594 8.20468581,19.324914 8.57411438,19.324914 C8.94354295,19.324914 9.01725724,19.389594 9.17925724,19.531554 C9.57611438,19.877634 10.0295429,20.164914 11.5741144,20.164914 C14.5415429,20.164914 17.1455429,14.667954 17.1455429,11.344914 C17.1455429,7.812714 14.8861144,5.044914 12.0026858,5.044914" id="Fill-1"></path>
                            </g>
                        </g>
                    </g>
                </g>
            </g>
        </g>
    </g>
</svg>