<?xml version="1.0" encoding="UTF-8"?>
<svg width="20px" height="20px" viewBox="0 0 20 20" version="1.1" xmlns="http://www.w3.org/2000/svg" xmlns:xlink="http://www.w3.org/1999/xlink">
    <!-- Generator: Sketch 41.2 (35397) - http://www.bohemiancoding.com/sketch -->
    <title>ic_supervisor</title>
    <desc>Created with Sketch.</desc>
    <defs></defs>
    <g id="Design-1" stroke="none" stroke-width="1" fill="none" fill-rule="evenodd" opacity="0.699999988">
        <g id="Dashboard-:-Health-Status" transform="translate(-31.000000, -84.000000)">
            <g id="Group-4" transform="translate(15.000000, 66.000000)">
                <g id="Group-4-Copy-6">
                    <g id="ic_supervisor" transform="translate(14.000000, 18.000000)">
                        <polygon id="Shape" points="0 0 24 0 24 24 0 24"></polygon>
                        <g id="Fill-323-+-Fill-324" transform="translate(2.000000, 0.000000)" fill="#727272">
                            <path d="M19.5833333,19.1666667 L19.1666667,19.1666667 L19.1666667,7.08333333 C19.1666667,6.85333333 18.9791667,6.66666667 18.75,6.66666667 L16.25,6.66666667 C16.02,6.66666667 15.8333333,6.85333333 15.8333333,7.08333333 L15.8333333,19.1666667 L14.1666667,19.1666667 L14.1666667,12.9166667 C14.1666667,12.6866667 13.9791667,12.5 13.75,12.5 L11.25,12.5 C11.02,12.5 10.8333333,12.6866667 10.8333333,12.9166667 L10.8333333,19.1666667 L9.16666667,19.1666667 L9.16666667,11.25 C9.16666667,11.02 8.97916667,10.8333333 8.75,10.8333333 L6.25,10.8333333 C6.02,10.8333333 5.83333333,11.02 5.83333333,11.25 L5.83333333,19.1666667 L4.16666667,19.1666667 L4.16666667,15.4166667 C4.16666667,15.1866667 3.97916667,15 3.75,15 L1.25,15 C1.02,15 0.833333333,15.1866667 0.833333333,15.4166667 L0.833333333,19.1666667 L0.416666667,19.1666667 C0.186666667,19.1666667 0,19.3533333 0,19.5833333 C0,19.8125 0.186666667,20 0.416666667,20 L19.5833333,20 C19.8125,20 20,19.8125 20,19.5833333 C20,19.3533333 19.8125,19.1666667 19.5833333,19.1666667" id="Fill-323"></path>
                            <path d="M2.5,10.8333333 C3.18833333,10.8333333 3.75,10.2725 3.75,9.58333333 C3.75,9.43166667 3.71833333,9.28666667 3.66833333,9.15166667 L6.865,6.4875 C7.0525,6.59833333 7.2675,6.66666667 7.5,6.66666667 C7.89916667,6.66666667 8.25083333,6.475 8.48,6.1825 L11.2525,7.10583333 C11.265,7.78416667 11.8183333,8.33333333 12.5,8.33333333 C13.1883333,8.33333333 13.75,7.7725 13.75,7.08333333 C13.75,6.85583333 13.685,6.6475 13.5791667,6.46333333 L17.0516667,2.4125 C17.1908333,2.46666667 17.3416667,2.5 17.5,2.5 C18.1883333,2.5 18.75,1.93916667 18.75,1.25 C18.75,0.56 18.1883333,0 17.5,0 C16.8108333,0 16.25,0.56 16.25,1.25 C16.25,1.47583333 16.315,1.68583333 16.42,1.86916667 L12.9483333,5.92 C12.8083333,5.86666667 12.6575,5.83333333 12.5,5.83333333 C12.1008333,5.83333333 11.7491667,6.025 11.5191667,6.31666667 L8.7475,5.39333333 C8.73416667,4.71583333 8.18083333,4.16666667 7.5,4.16666667 C6.81083333,4.16666667 6.25,4.72666667 6.25,5.41666667 C6.25,5.56833333 6.28083333,5.71333333 6.33166667,5.84833333 L3.13416667,8.51166667 C2.9475,8.40083333 2.73166667,8.33333333 2.5,8.33333333 C1.81083333,8.33333333 1.25,8.89333333 1.25,9.58333333 C1.25,10.2725 1.81083333,10.8333333 2.5,10.8333333" id="Fill-324"></path>
                        </g>
                    </g>
                </g>
            </g>
        </g>
    </g>
</svg>