<?xml version="1.0" encoding="UTF-8" standalone="no"?>
<svg width="18px" height="15px" viewBox="0 0 18 15" version="1.1" xmlns="http://www.w3.org/2000/svg" xmlns:xlink="http://www.w3.org/1999/xlink">
    <!-- Generator: Sketch 39.1 (31720) - http://www.bohemiancoding.com/sketch -->
    <title>Fill 1</title>
    <desc>Created with Sketch.</desc>
    <defs></defs>
    <g id="Design-1" stroke="none" stroke-width="1" fill="none" fill-rule="evenodd">
        <g id="Dashboard-:-Nutrition" transform="translate(-738.000000, -542.000000)" fill="#FFFFFF">
            <g id="Group-5" transform="translate(220.000000, 142.000000)">
                <g id="Group-42-Copy-2" transform="translate(489.000000, 369.000000)">
                    <g id="Group-18">
                        <g id="Group-17">
                            <g id="Group-9-Copy">
                                <g id="Group-9" transform="translate(20.000000, 21.000000)">
                                    <g id="Fill-1" transform="translate(9.000000, 10.000000)">
                                        <path d="M13.5,8.96625 L13.5,4.5345 C14.562,4.71375 15.375,5.63775 15.375,6.75 C15.375,7.863 14.562,8.78775 13.5,8.96625 L13.5,8.96625 Z M3,11.25 C3,11.457 2.832,11.625 2.625,11.625 C2.418,11.625 2.25,11.457 2.25,11.25 L2.25,3 C2.25,2.793 2.418,2.625 2.625,2.625 C2.832,2.625 3,2.793 3,3 L3,11.25 Z M13.5,1.8945 L13.5,0.375 C13.5,0.168 13.332,0 13.125,0 L0.375,0 C0.168,0 0,0.168 0,0.375 L0,11.625 C0,13.4865 1.51425,15 3.375,15 L10.125,15 C11.98575,15 13.5,13.4865 13.5,11.625 L13.5,11.60625 C16.0125,11.4135 18,9.312 18,6.75 C18,4.18875 16.0125,2.08725 13.5,1.8945 L13.5,1.8945 Z"></path>
                                    </g>
                                </g>
                            </g>
                        </g>
                    </g>
                </g>
            </g>
        </g>
    </g>
</svg>