<?xml version="1.0" encoding="UTF-8"?>
<svg width="14px" height="18px" viewBox="0 0 14 18" version="1.1" xmlns="http://www.w3.org/2000/svg" xmlns:xlink="http://www.w3.org/1999/xlink">
    <!-- Generator: Sketch 41.2 (35397) - http://www.bohemiancoding.com/sketch -->
    <title>ic_account_circle_black_24px</title>
    <desc>Created with Sketch.</desc>
    <defs></defs>
    <g id="Design-1" stroke="none" stroke-width="1" fill="none" fill-rule="evenodd">
        <g id="Dashboard-:-overview-:-popover" transform="translate(-1020.000000, -187.000000)">
            <g id="Group-22">
                <g id="Group-4" transform="translate(995.000000, 46.000000)">
                    <g id="Group-4-Copy-2" transform="translate(0.000000, 120.000000)">
                        <g id="ic_account_circle_black_24px" transform="translate(20.000000, 18.000000)">
                            <polygon id="Shape" points="0 0 24 0 24 24 0 24"></polygon>
                            <g id="Fill-897" transform="translate(5.000000, 3.000000)" fill="#545454">
                                <path d="M10.8888889,6.75 L10.5,6.75 L3.5,6.75 L3.11111111,6.75 L3.11111111,4.5 C3.11111111,2.43225 4.85566667,0.75 7,0.75 C9.14433333,0.75 10.8888889,2.43225 10.8888889,4.5 L10.8888889,6.75 Z M7,13.5 C6.14133333,13.5 5.44444444,12.8295 5.44444444,12 C5.44444444,11.1705 6.14133333,10.5 7,10.5 C7.86022222,10.5 8.55555556,11.1705 8.55555556,12 C8.55555556,12.8295 7.86022222,13.5 7,13.5 L7,13.5 Z M11.6666667,6.957 L11.6666667,4.5 C11.6666667,2.01825 9.57366667,0 7,0 C4.42633333,0 2.33333333,2.01825 2.33333333,4.5 L2.33333333,6.957 C0.978444444,7.4235 0,8.66025 0,10.125 L0,14.625 C0,16.48575 1.57033333,18 3.5,18 L10.5,18 C12.4296667,18 14,16.48575 14,14.625 L14,10.125 C14,8.66025 13.0215556,7.4235 11.6666667,6.957 L11.6666667,6.957 Z"></path>
                            </g>
                        </g>
                    </g>
                </g>
            </g>
        </g>
    </g>
</svg>