<?xml version="1.0" encoding="UTF-8" standalone="no"?>
<svg width="14px" height="19px" viewBox="0 0 14 19" version="1.1" xmlns="http://www.w3.org/2000/svg" xmlns:xlink="http://www.w3.org/1999/xlink">
    <!-- Generator: Sketch 39.1 (31720) - http://www.bohemiancoding.com/sketch -->
    <title>Combined Shape</title>
    <desc>Created with Sketch.</desc>
    <defs></defs>
    <g id="Design-1" stroke="none" stroke-width="1" fill="none" fill-rule="evenodd">
        <g id="Dashboard-:-Health-Status" transform="translate(-250.000000, -607.000000)" fill="#FFFFFF">
            <g id="Group-8" transform="translate(220.000000, 142.000000)">
                <g id="Group-17-Copy-5" transform="translate(0.000000, 436.000000)">
                    <g id="Group-9-Copy">
                        <g id="Group-9" transform="translate(20.000000, 20.000000)">
                            <g id="Group-18" transform="translate(0.000000, 1.000000)">
                                <path d="M19,14 L24,14 L24,12 L17.7326495,12 C18.4740395,11.6964941 19,10.9465913 19,10.0720021 C19,8.92963826 18.1026667,8 17,8 C15.8973333,8 15,8.92963826 15,10.0720021 C15,10.9465913 15.5259605,11.6964941 16.2673505,12 L10,12 L10,14 L15,14 L15,27 L16.8181885,27 L16.8181885,19 L17.1818115,19 L17.1818115,27 L19,27 L19,14 Z" id="Combined-Shape"></path>
                            </g>
                        </g>
                    </g>
                </g>
            </g>
        </g>
    </g>
</svg>