<?xml version="1.0" encoding="UTF-8"?>
<svg width="18px" height="18px" viewBox="0 0 18 18" version="1.1" xmlns="http://www.w3.org/2000/svg" xmlns:xlink="http://www.w3.org/1999/xlink">
    <!-- Generator: Sketch 41.2 (35397) - http://www.bohemiancoding.com/sketch -->
    <title>ic_supervisor</title>
    <desc>Created with Sketch.</desc>
    <defs></defs>
    <g id="Design-1" stroke="none" stroke-width="1" fill="none" fill-rule="evenodd" opacity="0.699999988">
        <g id="Dashboard-:-overview" transform="translate(-31.000000, -447.000000)">
            <g id="Group-4" transform="translate(15.000000, 66.000000)">
                <g id="Group-4-Copy-7" transform="translate(0.000000, 360.000000)">
                    <g id="ic_supervisor" transform="translate(13.000000, 18.000000)">
                        <polygon id="Shape" points="0 0 24 0 24 24 0 24"></polygon>
                        <g id="Fill-291-+-Fill-292" transform="translate(3.000000, 3.000000)" fill="#6E6E6E">
                            <path d="M11.64405,9.9624 C11.2638,9.82515 10.8498,9.68865 10.4133,9.5439 C9.9453,9.3894 9.4638,9.23115 9.0003,9.06165 L9.0003,7.66365 C9.3648,7.41915 10.03605,6.79365 10.11705,5.46465 C10.3923,5.2884 10.5648,4.90665 10.5648,4.4199 C10.5648,3.9924 10.43205,3.64665 10.21305,3.44865 C10.39605,2.9874 10.69455,2.18265 10.48905,1.35615 C10.24005,0.3549 8.82405,0.00015 7.68705,0.00015 L7.68705,0.00015 C6.6798,0.00015 5.4543,0.27915 5.0148,1.03815 C4.62855,1.01715 4.3278,1.12065 4.1163,1.35015 C3.6153,1.89465 3.8928,2.9079 4.05855,3.48015 C3.97155,3.5514 3.8958,3.6444 3.8373,3.75765 C3.73905,3.9459 3.6843,4.19115 3.6843,4.4469 C3.6843,4.9224 3.85755,5.29515 4.1328,5.46765 C4.21455,6.79515 4.8858,7.41915 5.2503,7.66365 L5.2503,9.06165 C4.78605,9.23115 4.30455,9.3894 3.8373,9.5439 C2.07405,10.12665 0.6813,10.58565 0.39405,11.4534 C0.0243,12.5679 0.00105,14.5389 0.0003,14.6214 C-0.00045,14.72115 0.0378,14.8179 0.10905,14.88915 C0.1788,14.9604 0.2748,15.00015 0.3753,15.00015 L10.0578,15.00015 C9.6528,14.3454 9.3753,13.6554 9.3753,12.97815 C9.3753,11.3259 10.4463,10.24365 11.64405,9.9624" id="Fill-291"></path>
                            <path d="M15.860925,10.636575 C15.211425,10.636575 14.507175,10.984575 14.062425,11.739075 C13.623675,10.991325 12.943425,10.636575 12.263925,10.636575 C11.212425,10.636575 10.124925,11.512575 10.124925,12.978825 C10.124925,14.667075 12.462675,16.776825 13.836675,17.788575 C13.838175,17.789325 13.840425,17.791575 13.841925,17.792325 C13.907925,17.839575 13.985175,17.863575 14.062425,17.863575 C14.139675,17.863575 14.217675,17.839575 14.282925,17.792325 C14.284425,17.791575 14.286675,17.789325 14.288175,17.788575 C15.643425,16.797825 17.999925,14.653575 17.999925,12.978825 C17.999925,11.512575 16.912425,10.636575 15.860925,10.636575" id="Fill-292"></path>
                        </g>
                    </g>
                </g>
            </g>
        </g>
    </g>
</svg>