<?xml version="1.0" encoding="UTF-8"?>
<svg width="16px" height="18px" viewBox="0 0 16 18" version="1.1" xmlns="http://www.w3.org/2000/svg" xmlns:xlink="http://www.w3.org/1999/xlink">
    <!-- Generator: Sketch 41.2 (35397) - http://www.bohemiancoding.com/sketch -->
    <title>Fill 701</title>
    <desc>Created with Sketch.</desc>
    <defs></defs>
    <g id="Design-1" stroke="none" stroke-width="1" fill="none" fill-rule="evenodd">
        <g id="Dashboard-:-overview" transform="translate(-249.000000, -540.000000)" fill="#FFFFFF">
            <g id="Group-25" transform="translate(220.000000, 142.000000)">
                <g id="Group-17">
                    <g id="Group-28">
                        <g id="Group-9-Copy" transform="translate(0.000000, 369.000000)">
                            <g id="Group-9" transform="translate(20.000000, 20.000000)">
                                <path d="M23.94734,16.392 C23.72628,15.999 23.4241647,15.459 23.4160591,15.3045 C23.4160591,11.358 19.8334135,9 16.3686665,9 C12.2370552,9 9,12.315 9,16.5465 C9,19.2465 9.99182251,21.2535 11.9474666,22.515 L11.9474666,26.625 C11.9474666,26.832 12.1125247,27 12.3158999,27 L19.6845664,27 C19.8886785,27 20.0529997,26.832 20.0529997,26.625 L20.0529997,24.3915 C21.3329371,24.3795 22.107384,24.24525 22.6858243,23.65575 C23.3011079,23.02875 23.3887951,21.15075 23.39469,20.259 C23.6179606,20.26275 23.8987068,20.2635 24.1440834,20.2545 C24.4292508,20.241 24.6952596,20.09475 24.8529491,19.8645 C24.9900063,19.6665 24.99148,19.458 24.9929538,19.30725 L24.9959012,19.203 C25.0548506,18.366 24.466831,17.3175 23.94734,16.392" id="Fill-701"></path>
                            </g>
                        </g>
                    </g>
                </g>
            </g>
        </g>
    </g>
</svg>