<?xml version="1.0" encoding="UTF-8" standalone="no"?>
<svg width="13px" height="23px" viewBox="0 0 13 23" version="1.1" xmlns="http://www.w3.org/2000/svg" xmlns:xlink="http://www.w3.org/1999/xlink">
    <!-- Generator: Sketch 39.1 (31720) - http://www.bohemiancoding.com/sketch -->
    <title>Group 25</title>
    <desc>Created with Sketch.</desc>
    <defs></defs>
    <g id="Design-1" stroke="none" stroke-width="1" fill="none" fill-rule="evenodd">
        <g id="Dashboard-:-User-Activity" transform="translate(-739.000000, -564.000000)">
            <g id="Group-28" transform="translate(220.000000, 142.000000)">
                <g id="Group-18" transform="translate(489.000000, 396.000000)">
                    <g id="Group-17">
                        <g id="Group-9-Copy">
                            <g id="Group-9" transform="translate(20.000000, 20.000000)">
                                <g id="Group-25" transform="translate(11.000000, 7.000000)">
                                    <g id="Group">
                                        <g id="Group-26">
                                            <ellipse id="Oval" stroke="#FFFFFF" stroke-width="1.1" cx="3.85714286" cy="3.88235294" rx="3.85714286" ry="3.88235294"></ellipse>
                                            <rect id="Rectangle-12" fill="#01B3C5" x="2.18181818" y="4.4" width="3.27272727" height="4.4"></rect>
                                            <polygon id="Path" fill="#FFFFFF" points="0.337960379 9.89987362 0.337960379 17.2315561 3.61900112 20.2553424 3.61900112 21.9208027 10.9763448 21.9208027 10.9763448 20.3746331 11.8828125 19.1634306 11.8828125 10.543542 10.1113964 10.543542 10.1113964 11.8224359 9.52733952 11.8224359 9.52733952 9.34439848 7.96058303 9.34439848 7.96058303 11.7054036 7.06682478 11.7054036 7.06682478 9.33898041 5.49436424 9.33898041 5.49436424 11.6470954 4.63733165 11.6470954 4.63733165 4.99429917 2.87004742 4.99429917 2.87004742 13.8613547 2.0206702 13.8613547 2.0206702 10.645188"></polygon>
                                        </g>
                                    </g>
                                </g>
                            </g>
                        </g>
                    </g>
                </g>
            </g>
        </g>
    </g>
</svg>