<?xml version="1.0" encoding="UTF-8" standalone="no"?>
<svg width="18px" height="19px" viewBox="0 0 18 19" version="1.1" xmlns="http://www.w3.org/2000/svg" xmlns:xlink="http://www.w3.org/1999/xlink">
    <!-- Generator: Sketch 39.1 (31720) - http://www.bohemiancoding.com/sketch -->
    <title>Fill 76 + Fill 77 + Fill 78</title>
    <desc>Created with Sketch.</desc>
    <defs></defs>
    <g id="Design-1" stroke="none" stroke-width="1" fill="none" fill-rule="evenodd">
        <g id="Dashboard-:-Health-Status" transform="translate(-737.000000, -171.000000)">
            <g id="Group-8" transform="translate(220.000000, 142.000000)">
                <g id="Group-38" transform="translate(489.000000, 0.000000)">
                    <g id="Group-9" transform="translate(20.000000, 20.000000)">
                        <g id="Fill-76-+-Fill-77-+-Fill-78" transform="translate(8.000000, 9.000000)">
                            <path d="M5,0 C3.3455,0 2,1.3455 2,3 C2,4.6545 3.3455,6 5,6 C6.6545,6 8,4.6545 8,3 C8,1.3455 6.6545,0 5,0" id="Fill-76" fill="#FFFFFF"></path>
                            <path d="M5.22,7 L5.6385,12.3512 L4.5,13.5656 L3.3615,12.3512 L3.78,7 L0,7 L0,7.4 C0,10.2432 0.95325,12.496 2.625,13.6264 L2.625,19 L6.35175,19 L6.35175,13.6264 C8.04675,12.4952 9,10.2424 9,7.4 L9,7 L5.22,7 Z" id="Fill-77" fill="#FFFFFF"></path>
                            <path d="M7.76317241,1 C8.24413793,1.6704 8.54075862,2.496 8.54075862,3.4 C8.54075862,4.7136 7.93006897,5.8704 7,6.6 L10.058,6.6 L10.058,7.8 C10.058,9.8688 9.57096552,11.652 8.69096552,13 L18,13 L18,1 L7.76317241,1 Z" id="Fill-78" fill="#FFFFFF"></path>
                            <path d="M14.6856076,3 C14.2663504,3 13.8148057,3.22504952 13.53,3.7088819 C13.24664,3.22697714 12.7950952,3 12.3743924,3 C11.69828,3 11,3.56286476 11,4.50498855 C11,5.58204569 12.5088438,6.95402853 13.3844647,7.59544376 C13.3854285,7.59592566 13.3873562,7.59737138 13.38832,7.59785328 C13.4302457,7.62869519 13.4803638,7.64363423 13.53,7.64363423 C13.5796362,7.64363423 13.6292724,7.62869519 13.67168,7.59785328 C13.6721619,7.59737138 13.6740895,7.59592566 13.6750533,7.59544376 C14.5410362,6.96463043 16.0599999,5.57963616 16.0599999,4.50498855 C16.0599999,3.56286476 15.361238,3 14.6856076,3" id="Fill-288" fill="#01B3C5"></path>
                        </g>
                    </g>
                </g>
            </g>
        </g>
    </g>
</svg>