<?xml version="1.0" encoding="UTF-8" standalone="no"?>
<svg width="11px" height="18px" viewBox="0 0 11 18" version="1.1" xmlns="http://www.w3.org/2000/svg" xmlns:xlink="http://www.w3.org/1999/xlink">
    <!-- Generator: Sketch 39.1 (31720) - http://www.bohemiancoding.com/sketch -->
    <title>Fill 5</title>
    <desc>Created with Sketch.</desc>
    <defs></defs>
    <g id="Design-1" stroke="none" stroke-width="1" fill="none" fill-rule="evenodd">
        <g id="Dashboard-:-Nutrition" transform="translate(-740.000000, -171.000000)" fill="#FFFFFF">
            <g id="Group-5" transform="translate(220.000000, 142.000000)">
                <g id="Group-42" transform="translate(489.000000, 0.000000)">
                    <g id="Group-18">
                        <g id="Group-17">
                            <g id="Group-9-Copy">
                                <g id="Group-9" transform="translate(20.000000, 20.000000)">
                                    <g id="Fill-5" transform="translate(11.000000, 9.000000)">
                                        <path d="M1.29550667,4.5 L1.78757333,0.75 L9.21330667,0.75 L9.71124,4.5 L1.29550667,4.5 Z M10.63304,6 C10.63304,5.83275 9.91877333,0.4905 9.89677333,0.32475 C9.87184,0.1395 9.71637333,0 9.53304,0 L1.46637333,0 C1.28230667,0 1.12757333,0.1395 1.10264,0.3255 C1.08944,0.42975 0.366373333,5.895 0.366373333,6 C0.366373333,8.769 2.47324,11.03775 5.13304,11.23125 L5.13304,17.25 L3.29970667,17.25 C3.09730667,17.25 2.93304,17.418 2.93304,17.625 C2.93304,17.832 3.09730667,18 3.29970667,18 L7.69970667,18 C7.90284,18 8.06637333,17.832 8.06637333,17.625 C8.06637333,17.418 7.90284,17.25 7.69970667,17.25 L5.86637333,17.25 L5.86637333,11.23125 C8.52544,11.03775 10.63304,8.769 10.63304,6 L10.63304,6 Z"></path>
                                    </g>
                                </g>
                            </g>
                        </g>
                    </g>
                </g>
            </g>
        </g>
    </g>
</svg>