<?xml version="1.0" encoding="UTF-8"?>
<svg width="22px" height="22px" viewBox="0 0 22 22" version="1.1" xmlns="http://www.w3.org/2000/svg" xmlns:xlink="http://www.w3.org/1999/xlink">
    <!-- Generator: Sketch 41.2 (35397) - http://www.bohemiancoding.com/sketch -->
    <title>Group 35</title>
    <desc>Created with Sketch.</desc>
    <defs></defs>
    <g id="Design-1" stroke="none" stroke-width="1" fill="none" fill-rule="evenodd" opacity="0.699999988">
        <g id="Dashboard-:-overview" transform="translate(-28.000000, -264.000000)" fill="#727272">
            <g id="Group-4" transform="translate(15.000000, 66.000000)">
                <g id="Group-4-Copy-4" transform="translate(0.000000, 180.000000)">
                    <g id="Group-35" transform="translate(13.000000, 18.000000)">
                        <circle id="Oval-5" cx="13" cy="2" r="2"></circle>
                        <path d="M13.2244607,6.02121326 L16.2433097,8.95082321 L16.461535,9.16259766 L16.765625,9.16259766 L21.7275391,9.16259766 L21.7275391,7.66259766 L16.765625,7.66259766 L17.2879403,7.8743721 L13.127907,3.83731202 L13.4212036,3.18020045 L12.0514527,2.56882298 L11.7049469,3.34514623 L6.03610307,4.23066593 L5.20150134,4.36103754 L5.42975457,5.17433777 L6.55866082,9.19679871 L8.00286261,8.79148254 L6.87395636,4.76902161 L6.26760787,5.71269344 L10.9765276,4.97712172 L5.97723391,16.1777097 L6.92159708,15.779718 L1.50460489,13.7821594 L0.985629483,15.1895203 L6.40262167,17.1870789 L7.06098325,17.4298549 L7.34698484,16.7890872 L9.84310547,11.1966934 L13.6755694,15.0384749 L13.4630965,14.4098579 L12.6208114,20.7394477 L14.1077043,20.9373101 L14.9499894,14.6077203 L14.998788,14.2410099 L14.7375166,13.9791033 L11.2275786,10.4606319 L13.2244607,6.02121326 Z" id="Combined-Shape" stroke="#727272" stroke-width="0.5"></path>
                    </g>
                </g>
            </g>
        </g>
    </g>
</svg>