<?xml version="1.0" encoding="UTF-8"?>
<svg width="17px" height="20px" viewBox="0 0 17 20" version="1.1" xmlns="http://www.w3.org/2000/svg" xmlns:xlink="http://www.w3.org/1999/xlink">
    <!-- Generator: Sketch 41.2 (35397) - http://www.bohemiancoding.com/sketch -->
    <title>ic_account_circle_black_24px</title>
    <desc>Created with Sketch.</desc>
    <defs></defs>
    <g id="Design-1" stroke="none" stroke-width="1" fill="none" fill-rule="evenodd" opacity="0.699999988">
        <g id="Dashboard-:-Nutrition" transform="translate(-32.000000, -146.000000)">
            <g id="Group-4" transform="translate(15.000000, 66.000000)">
                <g id="Group-4-Copy-2" transform="translate(0.000000, 60.000000)">
                    <g id="ic_account_circle_black_24px" transform="translate(13.000000, 18.000000)">
                        <g id="Fill-267" transform="translate(4.000000, 2.000000)">
                            <path d="M15.7859571,0.00056 L0.405004762,0.00056 C0.18157619,0.00056 0.000242857143,0.17976 0.000242857143,0.40056 L0.000242857143,6.21256 C0.000242857143,11.65976 3.02948095,16.61976 7.9068619,19.15496 C7.96595714,19.18536 8.03071905,19.20056 8.09548095,19.20056 C8.16024286,19.20056 8.22419524,19.18536 8.2841,19.15496 C13.1606714,16.61816 16.190719,11.65816 16.190719,6.21256 L16.190719,0.40056 C16.190719,0.17976 16.0093857,0.00056 15.7859571,0.00056" fill="#727272"></path>
                            <path d="M9.82704762,5 C9.16419048,5 8.45028571,5.35580952 8,6.1207619 C7.552,5.35885714 6.83809524,5 6.17295238,5 C5.104,5 4,5.88990476 4,7.37942857 C4,9.08228571 6.38552381,11.2514286 7.76990476,12.2655238 C7.77142857,12.2662857 7.77447619,12.2685714 7.776,12.2693333 C7.84228571,12.3180952 7.92152381,12.3417143 8,12.3417143 C8.07847619,12.3417143 8.15695238,12.3180952 8.224,12.2693333 C8.2247619,12.2685714 8.22780952,12.2662857 8.22933333,12.2655238 C9.59847619,11.2681905 12,9.07847619 12,7.37942857 C12,5.88990476 10.8952381,5 9.82704762,5" id="Fill-288" fill="#FFFFFF"></path>
                        </g>
                        <polygon id="Shape" points="0 0 24 0 24 24 0 24"></polygon>
                    </g>
                </g>
            </g>
        </g>
    </g>
</svg>