<?xml version="1.0" encoding="UTF-8" standalone="no"?>
<svg width="16px" height="18px" viewBox="0 0 16 18" version="1.1" xmlns="http://www.w3.org/2000/svg" xmlns:xlink="http://www.w3.org/1999/xlink">
    <!-- Generator: Sketch 39.1 (31720) - http://www.bohemiancoding.com/sketch -->
    <title>Fill 700</title>
    <desc>Created with Sketch.</desc>
    <defs></defs>
    <g id="Design-1" stroke="none" stroke-width="1" fill="none" fill-rule="evenodd">
        <g id="Dashboard-:-User-Interests" transform="translate(-250.000000, -1419.000000)" fill="#FFFFFF">
            <g id="Group-8" transform="translate(220.000000, 142.000000)">
                <g id="Group-45-Copy-6" transform="translate(0.000000, 1248.000000)">
                    <g id="Group-9" transform="translate(20.000000, 20.000000)">
                        <g id="Group-18" transform="translate(0.000000, 1.000000)">
                            <path d="M17.4850909,18.76976 C17.4218182,18.81512 17.3469091,18.83744 17.2727273,18.83744 C17.1978182,18.83744 17.1236364,18.81512 17.0603636,18.76976 C16.6727273,18.494 13.2727273,16.01072 13.2727273,13.9652 C13.2727273,12.50792 14.3730909,11.63672 15.4370909,11.63672 C16.0625455,11.63672 16.7978182,11.94848 17.2727273,12.76136 C17.7476364,11.94848 18.4829091,11.63672 19.1083636,11.63672 C20.1723636,11.63672 21.2727273,12.50792 21.2727273,13.9652 C21.2727273,16.01072 17.8727273,18.494 17.4850909,18.76976 M24.7527273,15.09632 C24.5345455,14.71832 24.2356364,14.20064 24.2276364,14.05232 C24.2276364,10.26368 20.6916364,8 17.2727273,8 C13.1949091,8 10,11.18168 10,15.24464 C10,17.83664 10.9781818,19.76336 12.9090909,20.9744 L12.9090909,24.92 C12.9090909,25.11872 13.072,25.28 13.2727273,25.28 L20.5454545,25.28 C20.7461818,25.28 20.9090909,25.11872 20.9090909,24.92 L20.9090909,22.77584 C22.1723636,22.7636 22.9367273,22.63544 23.5069091,22.06952 C24.1149091,21.4676 24.2014545,19.66472 24.2072727,18.80864 C24.4276364,18.81224 24.704,18.81296 24.9461818,18.8036 C25.2283636,18.79136 25.4901818,18.65096 25.6465455,18.42992 C25.7810909,18.23984 25.7832727,18.03968 25.7847273,17.89496 L25.7869091,17.79488 C25.8458182,16.99136 25.2647273,15.9848 24.7527273,15.09632" id="Fill-700"></path>
                        </g>
                    </g>
                </g>
            </g>
        </g>
    </g>
</svg>