<?xml version="1.0" encoding="UTF-8" standalone="no"?>
<svg width="15px" height="18px" viewBox="0 0 15 18" version="1.1" xmlns="http://www.w3.org/2000/svg" xmlns:xlink="http://www.w3.org/1999/xlink">
    <!-- Generator: Sketch 39.1 (31720) - http://www.bohemiancoding.com/sketch -->
    <title>Fill 1 + Fill 3</title>
    <desc>Created with Sketch.</desc>
    <defs></defs>
    <g id="Design-1" stroke="none" stroke-width="1" fill="none" fill-rule="evenodd">
        <g id="Dashboard-:-Nutrition" transform="translate(-250.000000, -171.000000)" fill="#FFFFFF">
            <g id="Group-5" transform="translate(220.000000, 142.000000)">
                <g id="Group-18">
                    <g id="Group-17">
                        <g id="Group-9-Copy">
                            <g id="Group-9" transform="translate(20.000000, 21.000000)">
                                <g id="Group-18">
                                    <g id="Fill-1-+-Fill-3" transform="translate(10.000000, 8.000000)">
                                        <path d="M10.0022382,4.324212 C8.66223817,4.324212 8.19509532,4.543812 7.50223817,4.931892 L7.50223817,3.964212 C7.50223817,2.972052 6.7008096,2.164212 5.71652389,2.164212 L4.28795246,2.164212 C4.0908096,2.164212 3.9308096,2.325492 3.9308096,2.524212 C3.9308096,2.722932 4.0908096,2.884212 4.28795246,2.884212 L5.71652389,2.884212 C6.30652389,2.884212 6.78795246,3.368772 6.78795246,3.964212 L6.78795246,4.931892 C6.09438103,4.551732 5.66152389,4.324212 4.28795246,4.324212 C1.88509532,4.324212 0.0022381724,6.696612 0.0022381724,9.724212 C0.0022381724,12.572532 2.17223817,17.284212 4.64509532,17.284212 C5.93152389,17.284212 6.31009532,17.037972 6.64009532,16.741332 C6.77509532,16.619652 6.83723817,16.564212 7.14509532,16.564212 C7.45295246,16.564212 7.51438103,16.619652 7.64938103,16.741332 C7.98009532,17.037972 8.35795246,17.284212 9.64509532,17.284212 C12.1179525,17.284212 14.2879525,12.572532 14.2879525,9.724212 C14.2879525,6.696612 12.4050953,4.324212 10.0022382,4.324212" id="Fill-1"></path>
                                        <path d="M8.57366674,3.964212 C10.5429525,3.964212 12.1450953,2.349252 12.1450953,0.364212 C12.1450953,0.165492 11.984381,0.004212 11.7879525,0.004212 C9.81795246,0.004212 8.21652389,1.619172 8.21652389,3.604212 C8.21652389,3.802932 8.37652389,3.964212 8.57366674,3.964212" id="Fill-3"></path>
                                    </g>
                                </g>
                            </g>
                        </g>
                    </g>
                </g>
            </g>
        </g>
    </g>
</svg>