<?xml version="1.0" encoding="UTF-8" standalone="no"?>
<svg width="23px" height="26px" viewBox="0 0 23 26" version="1.1" xmlns="http://www.w3.org/2000/svg" xmlns:xlink="http://www.w3.org/1999/xlink">
    <!-- Generator: Sketch 39.1 (31720) - http://www.bohemiancoding.com/sketch -->
    <title>Group 2</title>
    <desc>Created with Sketch.</desc>
    <defs></defs>
    <g id="Design-1" stroke="none" stroke-width="1" fill="none" fill-rule="evenodd">
        <g id="Dashboard-:-User-Activity" transform="translate(-246.000000, -563.000000)">
            <g id="Group-28" transform="translate(220.000000, 142.000000)">
                <g id="Group-18" transform="translate(0.000000, 396.000000)">
                    <g id="Group-17">
                        <g id="Group-9-Copy">
                            <g id="Group-9" transform="translate(20.000000, 21.000000)">
                                <g id="Group-3" transform="translate(7.000000, 5.000000)">
                                    <g id="Group-2">
                                        <g id="Group-27">
                                            <circle id="Oval" stroke="#FFFFFF" cx="6.75" cy="6.75" r="6.75"></circle>
                                            <polyline id="Path-2" stroke="#FFFFFF" points="6.63671875 2.48925781 6.63671875 7.16099913 9.96044922 5.57910156"></polyline>
                                            <path d="M4.80712891,11.2390137 C4.80712891,11.2390137 3.72775721,9.59986543 4.85048723,11.3048582 C5.97321725,13.009851 7.09594727,14.7148438 7.09594727,14.7148438 L10.1560059,13.1020508 L7.59277344,8.97509766" id="Path-3" fill="#01B3C5"></path>
                                            <polygon id="Path" fill="#FFFFFF" transform="translate(13.500000, 17.000000) rotate(-33.000000) translate(-13.500000, -17.000000) " points="8 13.6370587 8 20.567428 11.1261941 23.4257017 11.1261941 25 18.1363124 25 18.1363124 23.5384629 19 22.3935578 19 14.2454947 17.3121847 14.2454947 17.3121847 15.454386 16.7556921 15.454386 16.7556921 13.1119886 15.2628777 13.1119886 15.2628777 15.3437597 14.4112998 15.3437597 14.4112998 13.1068671 12.9130506 13.1068671 12.9130506 15.2886431 12.0964651 15.2886431 12.0964651 9 10.4125868 9 10.4125868 17.3817009 9.60329538 17.3817009 9.60329538 14.3415769"></polygon>
                                        </g>
                                    </g>
                                </g>
                            </g>
                        </g>
                    </g>
                </g>
            </g>
        </g>
    </g>
</svg>