<?xml version="1.0" encoding="UTF-8"?>
<svg width="12px" height="19px" viewBox="0 0 12 19" version="1.1" xmlns="http://www.w3.org/2000/svg" xmlns:xlink="http://www.w3.org/1999/xlink">
    <!-- Generator: Sketch 41.2 (35397) - http://www.bohemiancoding.com/sketch -->
    <title>Group</title>
    <desc>Created with Sketch.</desc>
    <defs></defs>
    <g id="Design-1" stroke="none" stroke-width="1" fill="none" fill-rule="evenodd">
        <g id="Dashboard-:-overview" transform="translate(-740.000000, -540.000000)">
            <g id="Group-25" transform="translate(220.000000, 142.000000)">
                <g id="Group-17">
                    <g id="Group-28">
                        <g id="Group-27" transform="translate(489.000000, 369.000000)">
                            <g id="Group-9" transform="translate(20.000000, 20.000000)">
                                <g id="Group" transform="translate(11.000000, 9.000000)">
                                    <path d="M8.80005,7.14777592 C8.80005,7.90103679 8.94555,7.90103679 9.0003,7.90103679 C9.0543,7.90103679 9.19905,7.90103679 9.19905,7.14777592 C9.19905,6.39602007 9.0543,6.39602007 9.0003,6.39602007 C8.94555,6.39602007 8.80005,6.39602007 8.80005,7.14777592" id="Fill-24" fill="#0B0B0A"></path>
                                    <path d="M3.375,6.69657191 C3.375,6.41964883 3.25425,6.41964883 3.174,6.41964883 C3.0945,6.41964883 2.97525,6.41964883 2.97525,6.69657191 C2.97525,6.97274247 3.0945,6.97274247 3.174,6.97274247 C3.25425,6.97274247 3.375,6.97274247 3.375,6.69657191" id="Fill-25" fill="#0B0B0A"></path>
                                    <path d="M10.5,12.416087 C10.5,12.6237793 10.332,12.7923411 10.125,12.7923411 L1.875,12.7923411 C1.668,12.7923411 1.5,12.6237793 1.5,12.416087 L1.5,10.1585619 C1.5,9.95086957 1.668,9.78230769 1.875,9.78230769 L10.125,9.78230769 C10.332,9.78230769 10.5,9.95086957 10.5,10.1585619 L10.5,12.416087 Z M10.36875,3.78707358 L9.9825,3.01048495 L2.0175,3.01048495 L1.63125,3.78707358 C0.71325,3.90822742 0,4.6893311 0,5.64351171 L0,12.416087 C0,13.3702676 0.71325,14.1513712 1.63125,14.2725251 L2.01825,15.0498662 L9.98175,15.0498662 L10.36875,14.2725251 C11.28675,14.1513712 12,13.3702676 12,12.416087 L12,5.64351171 C12,4.6893311 11.28675,3.90822742 10.36875,3.78707358 L10.36875,3.78707358 Z" id="Fill-26" fill="#FFFFFF"></path>
                                    <path d="M9.75,0.375953177 C9.75,0.16826087 9.582,-0.000301003344 9.375,-0.000301003344 L2.625,-0.000301003344 C2.418,-0.000301003344 2.25,0.16826087 2.25,0.375953177 L2.25,2.25722408 L9.75,2.25722408 L9.75,0.375953177 Z" id="Fill-27" fill="#FFFFFF"></path>
                                    <path d="M2.25,17.6836455 C2.25,17.8913378 2.418,18.0598997 2.625,18.0598997 L9.375,18.0598997 C9.582,18.0598997 9.75,17.8913378 9.75,17.6836455 L9.75,15.8023746 L2.25,15.8023746 L2.25,17.6836455 Z" id="Fill-28" fill="#FFFFFF"></path>
                                </g>
                            </g>
                        </g>
                    </g>
                </g>
            </g>
        </g>
    </g>
</svg>